solid Conector
facet normal -9.65364112765799e-17 -1.52678780799522e-15 1.0
outer loop
vertex -4.22994972382185e-15 9.10000000000001 0.70000000000001
vertex 31.95 2.70000000000003 0.700000000000007
vertex 31.95 9.10000000000003 0.700000000000013
endloop
endfacet
facet normal -9.65364112765799e-17 -1.52678780799522e-15 1.0
outer loop
vertex 31.95 2.70000000000003 0.700000000000007
vertex -4.22994972382185e-15 9.10000000000001 0.70000000000001
vertex -2.8199664825479e-15 2.7 0.7
endloop
endfacet
facet normal 7.21644966006352e-16 -1.0 -1.38777878078144e-15
outer loop
vertex -1.26898491714655e-14 11.8 2.65000000000002
vertex 11.95 11.8 9.55000000000001
vertex -9.86988268891764e-15 11.8 9.55000000000001
endloop
endfacet
facet normal 7.21644966006352e-16 -1.0 -1.38777878078144e-15
outer loop
vertex 11.95 11.8 9.55000000000001
vertex -1.26898491714655e-14 11.8 2.65000000000002
vertex 11.95 11.8 2.65000000000002
endloop
endfacet
facet normal -7.21644966006352e-16 1.0 1.38777878078144e-15
outer loop
vertex 11.95 -1.40998324127395e-15 9.55
vertex -1.40998324127395e-15 -2.20309881449055e-16 2.65
vertex 1.40998324127395e-15 -9.6936347837584e-15 9.55
endloop
endfacet
facet normal -7.21644966006352e-16 1.0 1.38777878078144e-15
outer loop
vertex -1.40998324127395e-15 -2.20309881449055e-16 2.65
vertex 11.95 -1.40998324127395e-15 9.55
vertex 11.95 8.15146561361502e-15 2.65
endloop
endfacet
facet normal 1.13897846726191e-16 1.38777878078144e-15 -1.0
outer loop
vertex 1.40998324127395e-15 -9.6936347837584e-15 9.55
vertex 11.95 11.8 9.55000000000001
vertex 11.95 -1.40998324127395e-15 9.55
endloop
endfacet
facet normal 1.13897846726191e-16 1.38777878078144e-15 -1.0
outer loop
vertex 11.95 11.8 9.55000000000001
vertex 1.40998324127395e-15 -9.6936347837584e-15 9.55
vertex -9.86988268891764e-15 11.8 9.55000000000001
endloop
endfacet
facet normal -1.13897846726191e-16 -1.38777878078144e-15 1.0
outer loop
vertex 11.95 11.8 2.65000000000002
vertex -7.04991620636974e-15 9.1 2.65000000000001
vertex 11.95 9.10000000000001 2.65000000000001
endloop
endfacet
facet normal -1.13897846726191e-16 -1.38777878078144e-15 1.0
outer loop
vertex -7.04991620636974e-15 9.1 2.65000000000001
vertex 11.95 11.8 2.65000000000002
vertex -1.26898491714655e-14 11.8 2.65000000000002
endloop
endfacet
facet normal -1.13897846726191e-16 -1.38777878078144e-15 1.0
outer loop
vertex 0.0 2.7 2.65
vertex 11.95 8.15146561361502e-15 2.65
vertex 11.95 2.70000000000001 2.65
endloop
endfacet
facet normal -1.13897846726191e-16 -1.38777878078144e-15 1.0
outer loop
vertex 11.95 8.15146561361502e-15 2.65
vertex 0.0 2.7 2.65
vertex -1.40998324127395e-15 -2.20309881449055e-16 2.65
endloop
endfacet
facet normal -1.0 -9.72839270764676e-16 -4.11283938923548e-18
outer loop
vertex 1.40998324127395e-15 -9.6936347837584e-15 9.55
vertex 0.0 2.7 2.65
vertex -1.40998324127395e-15 -2.20309881449055e-16 2.65
endloop
endfacet
facet normal -1.0 -9.72839270764676e-16 -4.11283938923548e-18
outer loop
vertex 0.0 2.7 2.65
vertex 1.40998324127395e-15 -9.6936347837584e-15 9.55
vertex -9.86988268891764e-15 11.8 9.55000000000001
endloop
endfacet
facet normal -1.0 -9.72839270764676e-16 -4.11283938923548e-18
outer loop
vertex 0.0 2.7 2.65
vertex -9.86988268891764e-15 11.8 9.55000000000001
vertex -2.8199664825479e-15 2.7 0.7
endloop
endfacet
facet normal -1.0 -9.72839270764676e-16 -4.11283938923548e-18
outer loop
vertex -2.8199664825479e-15 2.7 0.7
vertex -9.86988268891764e-15 11.8 9.55000000000001
vertex -7.04991620636974e-15 9.1 2.65000000000001
endloop
endfacet
facet normal -1.0 -9.72839270764676e-16 -4.11283938923548e-18
outer loop
vertex -7.04991620636974e-15 9.1 2.65000000000001
vertex -9.86988268891764e-15 11.8 9.55000000000001
vertex -1.26898491714655e-14 11.8 2.65000000000002
endloop
endfacet
facet normal -1.0 -9.72839270764676e-16 -4.11283938923548e-18
outer loop
vertex -4.22994972382185e-15 9.10000000000001 0.70000000000001
vertex -2.8199664825479e-15 2.7 0.7
vertex -7.04991620636974e-15 9.1 2.65000000000001
endloop
endfacet
facet normal -1.0 -7.21644966006352e-16 -1.13897846726192e-16
outer loop
vertex 11.95 -1.40998324127395e-15 9.55
vertex 11.95 2.7 7.55
vertex 11.95 8.15146561361502e-15 2.65
endloop
endfacet
facet normal -1.0 -7.21644966006352e-16 -1.13897846726192e-16
outer loop
vertex 11.95 2.7 7.55
vertex 11.95 -1.40998324127395e-15 9.55
vertex 11.95 11.8 9.55000000000001
endloop
endfacet
facet normal -1.0 -7.21644966006352e-16 -1.13897846726192e-16
outer loop
vertex 11.95 8.15146561361502e-15 2.65
vertex 11.95 2.7 7.55
vertex 11.95 2.70000000000001 2.65
endloop
endfacet
facet normal -1.0 -7.21644966006352e-16 -1.13897846726192e-16
outer loop
vertex 11.95 2.7 7.55
vertex 11.95 11.8 9.55000000000001
vertex 11.95 9.1 7.55000000000001
endloop
endfacet
facet normal -1.0 -7.21644966006352e-16 -1.13897846726192e-16
outer loop
vertex 11.95 9.1 7.55000000000001
vertex 11.95 11.8 9.55000000000001
vertex 11.95 9.10000000000001 2.65000000000001
endloop
endfacet
facet normal -1.0 -7.21644966006352e-16 -1.13897846726192e-16
outer loop
vertex 11.95 9.10000000000001 2.65000000000001
vertex 11.95 11.8 9.55000000000001
vertex 11.95 11.8 2.65000000000002
endloop
endfacet
facet normal -1.0 -7.21644966006352e-16 -1.13897846726192e-16
outer loop
vertex 31.95 2.70000000000002 7.55
vertex 31.95 9.10000000000003 0.700000000000013
vertex 31.95 2.70000000000003 0.700000000000007
endloop
endfacet
facet normal -1.0 -7.21644966006352e-16 -1.13897846726192e-16
outer loop
vertex 31.95 9.10000000000003 0.700000000000013
vertex 31.95 2.70000000000002 7.55
vertex 31.95 9.10000000000002 7.55000000000001
endloop
endfacet
facet normal 7.07496932581537e-16 -1.0 -1.25973290063044e-15
outer loop
vertex -4.22994972382185e-15 9.10000000000001 0.70000000000001
vertex 11.95 9.10000000000001 2.65000000000001
vertex -7.04991620636974e-15 9.1 2.65000000000001
endloop
endfacet
facet normal 7.07496932581537e-16 -1.0 -1.25973290063044e-15
outer loop
vertex 11.95 9.10000000000001 2.65000000000001
vertex 31.95 9.10000000000002 7.55000000000001
vertex 11.95 9.1 7.55000000000001
endloop
endfacet
facet normal 7.07496932581537e-16 -1.0 -1.25973290063044e-15
outer loop
vertex 31.95 9.10000000000002 7.55000000000001
vertex 11.95 9.10000000000001 2.65000000000001
vertex 31.95 9.10000000000003 0.700000000000013
endloop
endfacet
facet normal 7.07496932581537e-16 -1.0 -1.25973290063044e-15
outer loop
vertex 31.95 9.10000000000003 0.700000000000013
vertex 11.95 9.10000000000001 2.65000000000001
vertex -4.22994972382185e-15 9.10000000000001 0.70000000000001
endloop
endfacet
facet normal -6.97265917812987e-16 1.0 1.42620992801331e-15
outer loop
vertex 31.95 2.70000000000003 0.700000000000007
vertex 11.95 2.7 7.55
vertex 31.95 2.70000000000002 7.55
endloop
endfacet
facet normal -6.97265917812987e-16 1.0 1.42620992801331e-15
outer loop
vertex 11.95 2.7 7.55
vertex 31.95 2.70000000000003 0.700000000000007
vertex 11.95 2.70000000000001 2.65
endloop
endfacet
facet normal -6.97265917812987e-16 1.0 1.42620992801331e-15
outer loop
vertex 11.95 2.70000000000001 2.65
vertex 31.95 2.70000000000003 0.700000000000007
vertex 0.0 2.7 2.65
endloop
endfacet
facet normal -6.97265917812987e-16 1.0 1.42620992801331e-15
outer loop
vertex 0.0 2.7 2.65
vertex 31.95 2.70000000000003 0.700000000000007
vertex -2.8199664825479e-15 2.7 0.7
endloop
endfacet
facet normal 1.26942967265537e-16 1.38403587477978e-15 -1.0
outer loop
vertex 31.95 2.70000000000002 7.55
vertex 29.8599332851468 5.25426032243204 7.55000000000001
vertex 29.9449465264899 5.90000000000001 7.55000000000001
endloop
endfacet
facet normal 1.26942967265537e-16 1.38403587477978e-15 -1.0
outer loop
vertex 29.8599332851468 5.25426032243204 7.55000000000001
vertex 31.95 2.70000000000002 7.55
vertex 29.610687073024 4.65252673675505 7.55000000000001
endloop
endfacet
facet normal 1.26942967265537e-16 1.38403587477978e-15 -1.0
outer loop
vertex 29.610687073024 4.65252673675505 7.55000000000001
vertex 31.95 2.70000000000002 7.55
vertex 29.2141936075788 4.13580639242117 7.55000000000001
endloop
endfacet
facet normal 1.26942967265537e-16 1.38403587477978e-15 -1.0
outer loop
vertex 29.2141936075788 4.13580639242117 7.55000000000001
vertex 31.95 2.70000000000002 7.55
vertex 28.6974732632449 3.739312926976 7.55
endloop
endfacet
facet normal 1.26942967265537e-16 1.38403587477978e-15 -1.0
outer loop
vertex 28.6974732632449 3.739312926976 7.55
vertex 31.95 2.70000000000002 7.55
vertex 28.095739677568 3.4900667148532 7.55000000000001
endloop
endfacet
facet normal 1.26942967265537e-16 1.38403587477978e-15 -1.0
outer loop
vertex 28.095739677568 3.4900667148532 7.55000000000001
vertex 31.95 2.70000000000002 7.55
vertex 27.45 3.4050534735101 7.55
endloop
endfacet
facet normal 1.26942967265537e-16 1.38403587477978e-15 -1.0
outer loop
vertex 27.45 3.4050534735101 7.55
vertex 31.95 2.70000000000002 7.55
vertex 11.95 2.7 7.55
endloop
endfacet
facet normal 1.26942967265537e-16 1.38403587477978e-15 -1.0
outer loop
vertex 27.45 3.4050534735101 7.55
vertex 11.95 2.7 7.55
vertex 26.804260322432 3.4900667148532 7.55
endloop
endfacet
facet normal 1.26942967265537e-16 1.38403587477978e-15 -1.0
outer loop
vertex 26.804260322432 3.4900667148532 7.55
vertex 11.95 2.7 7.55
vertex 26.202526736755 3.739312926976 7.55000000000001
endloop
endfacet
facet normal 1.26942967265537e-16 1.38403587477978e-15 -1.0
outer loop
vertex 26.202526736755 3.739312926976 7.55000000000001
vertex 11.95 2.7 7.55
vertex 25.6858063924212 4.13580639242117 7.55000000000001
endloop
endfacet
facet normal 1.26942967265537e-16 1.38403587477978e-15 -1.0
outer loop
vertex 25.6858063924212 4.13580639242117 7.55000000000001
vertex 11.95 2.7 7.55
vertex 25.289312926976 4.65252673675505 7.55000000000001
endloop
endfacet
facet normal 1.26942967265537e-16 1.38403587477978e-15 -1.0
outer loop
vertex 25.289312926976 4.65252673675505 7.55000000000001
vertex 11.95 2.7 7.55
vertex 25.0400667148532 5.25426032243204 7.55000000000001
endloop
endfacet
facet normal 1.26942967265537e-16 1.38403587477978e-15 -1.0
outer loop
vertex 25.0400667148532 5.25426032243204 7.55000000000001
vertex 11.95 2.7 7.55
vertex 24.9550534735101 5.90000000000001 7.55000000000001
endloop
endfacet
facet normal 1.26942967265537e-16 1.38403587477978e-15 -1.0
outer loop
vertex 31.95 9.10000000000002 7.55000000000001
vertex 27.45 8.39494652648993 7.55000000000002
vertex 11.95 9.1 7.55000000000001
endloop
endfacet
facet normal 1.26942967265537e-16 1.38403587477978e-15 -1.0
outer loop
vertex 27.45 8.39494652648993 7.55000000000002
vertex 31.95 9.10000000000002 7.55000000000001
vertex 28.095739677568 8.30993328514683 7.55000000000002
endloop
endfacet
facet normal 1.26942967265537e-16 1.38403587477978e-15 -1.0
outer loop
vertex 28.095739677568 8.30993328514683 7.55000000000002
vertex 31.95 9.10000000000002 7.55000000000001
vertex 28.697473263245 8.06068707302403 7.55000000000001
endloop
endfacet
facet normal 1.26942967265537e-16 1.38403587477978e-15 -1.0
outer loop
vertex 28.697473263245 8.06068707302403 7.55000000000001
vertex 31.95 9.10000000000002 7.55000000000001
vertex 29.2141936075788 7.66419360757886 7.55000000000001
endloop
endfacet
facet normal 1.26942967265537e-16 1.38403587477978e-15 -1.0
outer loop
vertex 29.2141936075788 7.66419360757886 7.55000000000001
vertex 31.95 9.10000000000002 7.55000000000001
vertex 29.610687073024 7.14747326324497 7.55000000000001
endloop
endfacet
facet normal 1.26942967265537e-16 1.38403587477978e-15 -1.0
outer loop
vertex 29.610687073024 7.14747326324497 7.55000000000001
vertex 31.95 9.10000000000002 7.55000000000001
vertex 31.95 2.70000000000002 7.55
endloop
endfacet
facet normal 1.26942967265537e-16 1.38403587477978e-15 -1.0
outer loop
vertex 29.610687073024 7.14747326324497 7.55000000000001
vertex 31.95 2.70000000000002 7.55
vertex 29.8599332851468 6.54573967756798 7.55000000000001
endloop
endfacet
facet normal 1.26942967265537e-16 1.38403587477978e-15 -1.0
outer loop
vertex 29.8599332851468 6.54573967756798 7.55000000000001
vertex 31.95 2.70000000000002 7.55
vertex 29.9449465264899 5.90000000000001 7.55000000000001
endloop
endfacet
facet normal 1.26942967265537e-16 1.38403587477978e-15 -1.0
outer loop
vertex 11.95 9.1 7.55000000000001
vertex 27.45 8.39494652648993 7.55000000000002
vertex 26.804260322432 8.30993328514682 7.55000000000002
endloop
endfacet
facet normal 1.26942967265537e-16 1.38403587477978e-15 -1.0
outer loop
vertex 11.95 9.1 7.55000000000001
vertex 26.804260322432 8.30993328514682 7.55000000000002
vertex 26.202526736755 8.06068707302402 7.55000000000001
endloop
endfacet
facet normal 1.26942967265537e-16 1.38403587477978e-15 -1.0
outer loop
vertex 11.95 9.1 7.55000000000001
vertex 26.202526736755 8.06068707302402 7.55000000000001
vertex 25.6858063924211 7.66419360757885 7.55000000000001
endloop
endfacet
facet normal 1.26942967265537e-16 1.38403587477978e-15 -1.0
outer loop
vertex 11.95 9.1 7.55000000000001
vertex 25.6858063924211 7.66419360757885 7.55000000000001
vertex 25.289312926976 7.14747326324497 7.55000000000001
endloop
endfacet
facet normal 1.26942967265537e-16 1.38403587477978e-15 -1.0
outer loop
vertex 11.95 9.1 7.55000000000001
vertex 25.289312926976 7.14747326324497 7.55000000000001
vertex 25.0400667148532 6.54573967756798 7.55000000000001
endloop
endfacet
facet normal 1.26942967265537e-16 1.38403587477978e-15 -1.0
outer loop
vertex 11.95 9.1 7.55000000000001
vertex 25.0400667148532 6.54573967756798 7.55000000000001
vertex 24.9550534735101 5.90000000000001 7.55000000000001
endloop
endfacet
facet normal 1.26942967265537e-16 1.38403587477978e-15 -1.0
outer loop
vertex 11.95 9.1 7.55000000000001
vertex 24.9550534735101 5.90000000000001 7.55000000000001
vertex 11.95 2.7 7.55
endloop
endfacet
facet normal 6.07600976770945e-16 1.94388619524022e-15 -1.0
outer loop
vertex 29.8599332851468 5.25426032243203 17.55
vertex 29.8599332851468 6.54573967756797 17.55
vertex 29.9449465264899 5.9 17.55
endloop
endfacet
facet normal 6.07600976770945e-16 1.94388619524022e-15 -1.0
outer loop
vertex 29.8599332851468 6.54573967756797 17.55
vertex 29.8599332851468 5.25426032243203 17.55
vertex 29.610687073024 4.65252673675504 17.55
endloop
endfacet
facet normal 6.07600976770945e-16 1.94388619524022e-15 -1.0
outer loop
vertex 29.8599332851468 6.54573967756797 17.55
vertex 29.610687073024 4.65252673675504 17.55
vertex 29.610687073024 7.14747326324496 17.55
endloop
endfacet
facet normal 6.07600976770945e-16 1.94388619524022e-15 -1.0
outer loop
vertex 29.610687073024 7.14747326324496 17.55
vertex 29.610687073024 4.65252673675504 17.55
vertex 29.2141936075788 7.66419360757884 17.55
endloop
endfacet
facet normal 6.07600976770945e-16 1.94388619524022e-15 -1.0
outer loop
vertex 29.2141936075788 7.66419360757884 17.55
vertex 29.610687073024 4.65252673675504 17.55
vertex 29.2141936075788 4.13580639242116 17.55
endloop
endfacet
facet normal 6.07600976770945e-16 1.94388619524022e-15 -1.0
outer loop
vertex 29.2141936075788 7.66419360757884 17.55
vertex 29.2141936075788 4.13580639242116 17.55
vertex 28.6974732632449 3.73931292697599 17.55
endloop
endfacet
facet normal 6.07600976770945e-16 1.94388619524022e-15 -1.0
outer loop
vertex 29.2141936075788 7.66419360757884 17.55
vertex 28.6974732632449 3.73931292697599 17.55
vertex 28.697473263245 8.06068707302401 17.55
endloop
endfacet
facet normal 6.07600976770945e-16 1.94388619524022e-15 -1.0
outer loop
vertex 28.697473263245 8.06068707302401 17.55
vertex 28.6974732632449 3.73931292697599 17.55
vertex 28.0957396775679 8.30993328514681 17.55
endloop
endfacet
facet normal 6.07600976770945e-16 1.94388619524022e-15 -1.0
outer loop
vertex 28.0957396775679 8.30993328514681 17.55
vertex 28.6974732632449 3.73931292697599 17.55
vertex 28.095739677568 3.49006671485319 17.55
endloop
endfacet
facet normal 6.07600976770945e-16 1.94388619524022e-15 -1.0
outer loop
vertex 28.0957396775679 8.30993328514681 17.55
vertex 28.095739677568 3.49006671485319 17.55
vertex 27.45 3.40505347351008 17.55
endloop
endfacet
facet normal 6.07600976770945e-16 1.94388619524022e-15 -1.0
outer loop
vertex 28.0957396775679 8.30993328514681 17.55
vertex 27.45 3.40505347351008 17.55
vertex 27.45 8.39494652648992 17.55
endloop
endfacet
facet normal 6.07600976770945e-16 1.94388619524022e-15 -1.0
outer loop
vertex 27.45 8.39494652648992 17.55
vertex 27.45 3.40505347351008 17.55
vertex 26.804260322432 3.49006671485319 17.55
endloop
endfacet
facet normal 6.07600976770945e-16 1.94388619524022e-15 -1.0
outer loop
vertex 27.45 8.39494652648992 17.55
vertex 26.804260322432 3.49006671485319 17.55
vertex 26.804260322432 8.30993328514681 17.55
endloop
endfacet
facet normal 6.07600976770945e-16 1.94388619524022e-15 -1.0
outer loop
vertex 26.804260322432 8.30993328514681 17.55
vertex 26.804260322432 3.49006671485319 17.55
vertex 26.202526736755 3.73931292697599 17.55
endloop
endfacet
facet normal 6.07600976770945e-16 1.94388619524022e-15 -1.0
outer loop
vertex 26.804260322432 8.30993328514681 17.55
vertex 26.202526736755 3.73931292697599 17.55
vertex 26.202526736755 8.06068707302401 17.55
endloop
endfacet
facet normal 6.07600976770945e-16 1.94388619524022e-15 -1.0
outer loop
vertex 26.202526736755 8.06068707302401 17.55
vertex 26.202526736755 3.73931292697599 17.55
vertex 25.6858063924211 7.66419360757884 17.55
endloop
endfacet
facet normal 6.07600976770945e-16 1.94388619524022e-15 -1.0
outer loop
vertex 25.6858063924211 7.66419360757884 17.55
vertex 26.202526736755 3.73931292697599 17.55
vertex 25.6858063924212 4.13580639242116 17.55
endloop
endfacet
facet normal 6.07600976770945e-16 1.94388619524022e-15 -1.0
outer loop
vertex 25.6858063924211 7.66419360757884 17.55
vertex 25.6858063924212 4.13580639242116 17.55
vertex 25.289312926976 4.65252673675504 17.55
endloop
endfacet
facet normal 6.07600976770945e-16 1.94388619524022e-15 -1.0
outer loop
vertex 25.6858063924211 7.66419360757884 17.55
vertex 25.289312926976 4.65252673675504 17.55
vertex 25.289312926976 7.14747326324495 17.55
endloop
endfacet
facet normal 6.07600976770945e-16 1.94388619524022e-15 -1.0
outer loop
vertex 25.289312926976 7.14747326324495 17.55
vertex 25.289312926976 4.65252673675504 17.55
vertex 25.0400667148532 5.25426032243202 17.55
endloop
endfacet
facet normal 6.07600976770945e-16 1.94388619524022e-15 -1.0
outer loop
vertex 25.289312926976 7.14747326324495 17.55
vertex 25.0400667148532 5.25426032243202 17.55
vertex 25.0400667148532 6.54573967756797 17.55
endloop
endfacet
facet normal 6.07600976770945e-16 1.94388619524022e-15 -1.0
outer loop
vertex 25.0400667148532 6.54573967756797 17.55
vertex 25.0400667148532 5.25426032243202 17.55
vertex 24.9550534735101 5.9 17.55
endloop
endfacet
facet normal -0.5 -0.866025403784439 -1.27111584890988e-15
outer loop
vertex 28.697473263245 8.06068707302403 7.55000000000001
vertex 29.2141936075788 7.66419360757884 17.55
vertex 28.697473263245 8.06068707302401 17.55
endloop
endfacet
facet normal -0.707106781186547 -0.707106781186548 -1.06474224751075e-15
outer loop
vertex 29.2141936075788 7.66419360757884 17.55
vertex 28.697473263245 8.06068707302403 7.55000000000001
vertex 29.2141936075788 7.66419360757886 7.55000000000001
endloop
endfacet
facet normal -0.707106781186547 -0.707106781186548 -1.06474224751075e-15
outer loop
vertex 29.2141936075788 7.66419360757884 17.55
vertex 29.610687073024 7.14747326324497 7.55000000000001
vertex 29.610687073024 7.14747326324496 17.55
endloop
endfacet
facet normal -0.866025403784439 -0.5 -7.86665814808725e-16
outer loop
vertex 29.610687073024 7.14747326324497 7.55000000000001
vertex 29.2141936075788 7.66419360757884 17.55
vertex 29.2141936075788 7.66419360757886 7.55000000000001
endloop
endfacet
facet normal -0.866025403784439 -0.5 -7.86665814808724e-16
outer loop
vertex 29.610687073024 7.14747326324496 17.55
vertex 29.8599332851468 6.54573967756798 7.55000000000001
vertex 29.8599332851468 6.54573967756797 17.55
endloop
endfacet
facet normal -0.965925826289068 -0.258819045102521 -4.50337442391315e-16
outer loop
vertex 29.8599332851468 6.54573967756798 7.55000000000001
vertex 29.610687073024 7.14747326324496 17.55
vertex 29.610687073024 7.14747326324497 7.55000000000001
endloop
endfacet
facet normal -1.0 -1.28304488943211e-15 -9.38369940655484e-17
outer loop
vertex 29.9449465264899 5.9 17.55
vertex 29.8599332851468 6.54573967756798 7.55000000000001
vertex 29.9449465264899 5.90000000000001 7.55000000000001
endloop
endfacet
facet normal -0.965925826289068 -0.258819045102521 -4.50337442391315e-16
outer loop
vertex 29.8599332851468 6.54573967756798 7.55000000000001
vertex 29.9449465264899 5.9 17.55
vertex 29.8599332851468 6.54573967756797 17.55
endloop
endfacet
facet normal -0.965925826289068 0.258819045102521 1.92232276550841e-16
outer loop
vertex 29.8599332851468 5.25426032243203 17.55
vertex 29.9449465264899 5.90000000000001 7.55000000000001
vertex 29.8599332851468 5.25426032243204 7.55000000000001
endloop
endfacet
facet normal -1.0 -9.97889372771406e-16 -9.38369940655481e-17
outer loop
vertex 29.9449465264899 5.90000000000001 7.55000000000001
vertex 29.8599332851468 5.25426032243203 17.55
vertex 29.9449465264899 5.9 17.55
endloop
endfacet
facet normal -0.866025403784439 0.499999999999999 4.14809193219306e-16
outer loop
vertex 29.610687073024 4.65252673675504 17.55
vertex 29.8599332851468 5.25426032243204 7.55000000000001
vertex 29.610687073024 4.65252673675505 7.55000000000001
endloop
endfacet
facet normal -0.965925826289069 0.258819045102521 1.92232276550841e-16
outer loop
vertex 29.8599332851468 5.25426032243204 7.55000000000001
vertex 29.610687073024 4.65252673675504 17.55
vertex 29.8599332851468 5.25426032243203 17.55
endloop
endfacet
facet normal -0.707106781186548 0.707106781186547 7.28152171731214e-16
outer loop
vertex 29.2141936075788 4.13580639242116 17.55
vertex 29.610687073024 4.65252673675505 7.55000000000001
vertex 29.2141936075788 4.13580639242117 7.55000000000001
endloop
endfacet
facet normal -0.866025403784439 0.499999999999999 4.14809193219306e-16
outer loop
vertex 29.610687073024 4.65252673675505 7.55000000000001
vertex 29.2141936075788 4.13580639242116 17.55
vertex 29.610687073024 4.65252673675504 17.55
endloop
endfacet
facet normal -0.707106781186548 0.707106781186547 7.28152171731214e-16
outer loop
vertex 29.2141936075788 4.13580639242116 17.55
vertex 28.6974732632449 3.739312926976 7.55
vertex 28.6974732632449 3.73931292697599 17.55
endloop
endfacet
facet normal -0.5 0.866025403784439 1.07355694451458e-15
outer loop
vertex 28.6974732632449 3.739312926976 7.55
vertex 29.2141936075788 4.13580639242116 17.55
vertex 29.2141936075788 4.13580639242117 7.55000000000001
endloop
endfacet
facet normal -0.5 0.866025403784439 1.07355694451458e-15
outer loop
vertex 28.6974732632449 3.739312926976 7.55
vertex 28.095739677568 3.49006671485319 17.55
vertex 28.6974732632449 3.73931292697599 17.55
endloop
endfacet
facet normal -0.258819045102522 0.965925826289068 1.27471240508772e-15
outer loop
vertex 28.095739677568 3.49006671485319 17.55
vertex 28.6974732632449 3.739312926976 7.55
vertex 28.095739677568 3.4900667148532 7.55000000000001
endloop
endfacet
facet normal -0.258819045102522 0.965925826289068 1.27471240508772e-15
outer loop
vertex 28.095739677568 3.4900667148532 7.55000000000001
vertex 27.45 3.40505347351008 17.55
vertex 28.095739677568 3.49006671485319 17.55
endloop
endfacet
facet normal -5.61244987884707e-16 1.0 1.32687614411007e-15
outer loop
vertex 27.45 3.40505347351008 17.55
vertex 28.095739677568 3.4900667148532 7.55000000000001
vertex 27.45 3.4050534735101 7.55
endloop
endfacet
facet normal -2.939116910153e-16 1.0 1.32687614411007e-15
outer loop
vertex 27.45 3.4050534735101 7.55
vertex 26.804260322432 3.49006671485319 17.55
vertex 27.45 3.40505347351008 17.55
endloop
endfacet
facet normal 0.25881904510252 0.965925826289068 1.27182255278785e-15
outer loop
vertex 26.804260322432 3.49006671485319 17.55
vertex 27.45 3.4050534735101 7.55
vertex 26.804260322432 3.4900667148532 7.55
endloop
endfacet
facet normal 0.25881904510252 0.965925826289068 1.27182255278785e-15
outer loop
vertex 26.804260322432 3.4900667148532 7.55
vertex 26.202526736755 3.73931292697599 17.55
vertex 26.804260322432 3.49006671485319 17.55
endloop
endfacet
facet normal 0.5 0.866025403784439 1.14877934615326e-15
outer loop
vertex 26.202526736755 3.73931292697599 17.55
vertex 26.804260322432 3.4900667148532 7.55
vertex 26.202526736755 3.739312926976 7.55000000000001
endloop
endfacet
facet normal 0.5 0.866025403784439 1.14877934615326e-15
outer loop
vertex 26.202526736755 3.73931292697599 17.55
vertex 25.6858063924212 4.13580639242117 7.55000000000001
vertex 25.6858063924212 4.13580639242116 17.55
endloop
endfacet
facet normal 0.707106781186547 0.707106781186548 9.76543766086812e-16
outer loop
vertex 25.6858063924212 4.13580639242117 7.55000000000001
vertex 26.202526736755 3.73931292697599 17.55
vertex 26.202526736755 3.739312926976 7.55000000000001
endloop
endfacet
facet normal 0.866025403784438 0.500000000000001 8.06336172286189e-16
outer loop
vertex 25.289312926976 4.65252673675505 7.55000000000001
vertex 25.6858063924212 4.13580639242116 17.55
vertex 25.6858063924212 4.13580639242117 7.55000000000001
endloop
endfacet
facet normal 0.707106781186547 0.707106781186548 9.76543766086812e-16
outer loop
vertex 25.6858063924212 4.13580639242116 17.55
vertex 25.289312926976 4.65252673675505 7.55000000000001
vertex 25.289312926976 4.65252673675504 17.55
endloop
endfacet
facet normal 0.965925826289068 0.258819045102522 6.40457883904926e-16
outer loop
vertex 25.0400667148532 5.25426032243204 7.55000000000001
vertex 25.289312926976 4.65252673675504 17.55
vertex 25.289312926976 4.65252673675505 7.55000000000001
endloop
endfacet
facet normal 0.866025403784438 0.500000000000001 8.0633617228619e-16
outer loop
vertex 25.289312926976 4.65252673675504 17.55
vertex 25.0400667148532 5.25426032243204 7.55000000000001
vertex 25.0400667148532 5.25426032243202 17.55
endloop
endfacet
facet normal 1.0 1.65731150504928e-15 3.00835732510256e-16
outer loop
vertex 24.9550534735101 5.90000000000001 7.55000000000001
vertex 25.0400667148532 5.25426032243202 17.55
vertex 25.0400667148532 5.25426032243204 7.55000000000001
endloop
endfacet
facet normal 0.965925826289068 0.258819045102522 6.40457883904926e-16
outer loop
vertex 25.0400667148532 5.25426032243202 17.55
vertex 24.9550534735101 5.90000000000001 7.55000000000001
vertex 24.9550534735101 5.9 17.55
endloop
endfacet
facet normal 0.965925826289069 -0.258819045102519 -2.02017547941741e-16
outer loop
vertex 25.0400667148532 6.54573967756798 7.55000000000001
vertex 24.9550534735101 5.9 17.55
vertex 24.9550534735101 5.90000000000001 7.55000000000001
endloop
endfacet
facet normal 1.0 7.30556075901998e-16 3.00835732510254e-16
outer loop
vertex 24.9550534735101 5.9 17.55
vertex 25.0400667148532 6.54573967756798 7.55000000000001
vertex 25.0400667148532 6.54573967756797 17.55
endloop
endfacet
facet normal 0.866025403784439 -0.499999999999999 -6.28662046374758e-16
outer loop
vertex 25.289312926976 7.14747326324497 7.55000000000001
vertex 25.0400667148532 6.54573967756797 17.55
vertex 25.0400667148532 6.54573967756798 7.55000000000001
endloop
endfacet
facet normal 0.965925826289069 -0.258819045102519 -2.02017547941741e-16
outer loop
vertex 25.0400667148532 6.54573967756797 17.55
vertex 25.289312926976 7.14747326324497 7.55000000000001
vertex 25.289312926976 7.14747326324495 17.55
endloop
endfacet
facet normal 0.707106781186548 -0.707106781186547 -9.36436922106142e-16
outer loop
vertex 25.6858063924211 7.66419360757885 7.55000000000001
vertex 25.289312926976 7.14747326324495 17.55
vertex 25.289312926976 7.14747326324497 7.55000000000001
endloop
endfacet
facet normal 0.866025403784439 -0.499999999999999 -6.28662046374758e-16
outer loop
vertex 25.289312926976 7.14747326324495 17.55
vertex 25.6858063924211 7.66419360757885 7.55000000000001
vertex 25.6858063924211 7.66419360757884 17.55
endloop
endfacet
facet normal 0.707106781186548 -0.707106781186547 -9.36436922106142e-16
outer loop
vertex 25.6858063924211 7.66419360757885 7.55000000000001
vertex 26.202526736755 8.06068707302401 17.55
vertex 25.6858063924211 7.66419360757884 17.55
endloop
endfacet
facet normal 0.5 -0.866025403784438 -1.17926065714296e-15
outer loop
vertex 26.202526736755 8.06068707302401 17.55
vertex 25.6858063924211 7.66419360757885 7.55000000000001
vertex 26.202526736755 8.06068707302402 7.55000000000001
endloop
endfacet
facet normal 0.500000000000001 -0.866025403784438 -1.17926065714296e-15
outer loop
vertex 26.202526736755 8.06068707302402 7.55000000000001
vertex 26.804260322432 8.30993328514681 17.55
vertex 26.202526736755 8.06068707302401 17.55
endloop
endfacet
facet normal 0.258819045102524 -0.965925826289068 -1.34283582065954e-15
outer loop
vertex 26.804260322432 8.30993328514681 17.55
vertex 26.202526736755 8.06068707302402 7.55000000000001
vertex 26.804260322432 8.30993328514682 7.55000000000002
endloop
endfacet
facet normal 0.258819045102524 -0.965925826289068 -1.34283582065954e-15
outer loop
vertex 26.804260322432 8.30993328514682 7.55000000000002
vertex 27.45 8.39494652648992 17.55
vertex 26.804260322432 8.30993328514681 17.55
endloop
endfacet
facet normal 3.10091130814407e-15 -1.0 -1.41476178817886e-15
outer loop
vertex 27.45 8.39494652648992 17.55
vertex 26.804260322432 8.30993328514682 7.55000000000002
vertex 27.45 8.39494652648993 7.55000000000002
endloop
endfacet
facet normal 3.10091130814407e-15 -1.0 -1.41476178817886e-15
outer loop
vertex 27.45 8.39494652648992 17.55
vertex 28.095739677568 8.30993328514683 7.55000000000002
vertex 28.0957396775679 8.30993328514681 17.55
endloop
endfacet
facet normal -0.258819045102521 -0.965925826289068 -1.39066069222695e-15
outer loop
vertex 28.095739677568 8.30993328514683 7.55000000000002
vertex 27.45 8.39494652648992 17.55
vertex 27.45 8.39494652648993 7.55000000000002
endloop
endfacet
facet normal -0.258819045102521 -0.965925826289068 -1.39066069222695e-15
outer loop
vertex 28.095739677568 8.30993328514683 7.55000000000002
vertex 28.697473263245 8.06068707302401 17.55
vertex 28.0957396775679 8.30993328514681 17.55
endloop
endfacet
facet normal -0.5 -0.866025403784439 -1.27111584890988e-15
outer loop
vertex 28.697473263245 8.06068707302401 17.55
vertex 28.095739677568 8.30993328514683 7.55000000000002
vertex 28.697473263245 8.06068707302403 7.55000000000001
endloop
endfacet
endsolid Conector
