solid Tubo
facet normal 0.935798267658689 0.352535958799946 1.09201577802528e-12
outer loop
vertex 38.3180950916896 6.99885188329276 14.0
vertex 38.4541528384273 6.50764024669194 -5.67926772115503e-10
vertex 38.31809509172 6.99885188325281 -7.81463033437449e-10
endloop
endfacet
facet normal 0.983818648848548 0.17916714592195 5.54840241936491e-13
outer loop
vertex 38.4541528384273 6.50764024669194 -5.67926772115503e-10
vertex 38.3180950916896 6.99885188329276 14.0
vertex 38.4541528384119 6.50764024673602 14.0
endloop
endfacet
facet normal 0.983818648843555 -0.179167145949369 8.71046953644113e-12
outer loop
vertex 38.4541528384119 5.49235975326394 14.0
vertex 38.3180950916594 5.00114811666725 2.07444175700211e-10
vertex 38.4541528383965 5.49235975321987 -6.53410895886934e-11
endloop
endfacet
facet normal 0.935798267643931 -0.352535958839121 8.88177392220973e-13
outer loop
vertex 38.3180950916594 5.00114811666725 2.07444175700211e-10
vertex 38.4541528384119 5.49235975326394 14.0
vertex 38.3180950916897 5.00114811670719 14.0
endloop
endfacet
facet normal 1.0 9.34499999894062e-12 7.28469246030371e-12
outer loop
vertex 38.4999999999999 5.99999999999998 14.0
vertex 38.4541528383965 5.49235975321987 -6.53410895886934e-11
vertex 38.4999999999999 5.99999999995452 -3.26616628743004e-10
endloop
endfacet
facet normal 0.983818648848884 -0.179167145920106 8.71046953827866e-12
outer loop
vertex 38.4541528383965 5.49235975321987 -6.53410895886934e-11
vertex 38.4999999999999 5.99999999999998 14.0
vertex 38.4541528384119 5.49235975326394 14.0
endloop
endfacet
facet normal 0.751436795319528 0.659805079277144 3.45916436836497e-11
outer loop
vertex 37.7957375872299 7.86944772405901 14.0
vertex 38.0962299562297 7.45773797367808 -9.6031367682246e-10
vertex 37.7957375872866 7.86944772403489 -1.09869072400486e-09
endloop
endfacet
facet normal 0.857492925743995 0.514495755375109 2.12785510477181e-11
outer loop
vertex 38.0962299562297 7.45773797367808 -9.6031367682246e-10
vertex 37.7957375872299 7.86944772405901 14.0
vertex 38.0962299561855 7.4577379737113 14.0
endloop
endfacet
facet normal 0.983818648853077 0.179167145897083 5.54840241859442e-13
outer loop
vertex 38.4541528384119 6.50764024673602 14.0
vertex 38.4999999999999 5.99999999995452 -3.26616628743004e-10
vertex 38.4541528384273 6.50764024669194 -5.67926772115503e-10
endloop
endfacet
facet normal 1.0 3.73194275698834e-11 7.2846924581339e-12
outer loop
vertex 38.4999999999999 5.99999999995452 -3.26616628743004e-10
vertex 38.4541528384119 6.50764024673602 14.0
vertex 38.4999999999999 5.99999999999998 14.0
endloop
endfacet
facet normal 0.935798267633168 -0.35253595886769 8.88177391462805e-13
outer loop
vertex 38.3180950916897 5.00114811670719 14.0
vertex 38.0962299561414 4.54226202625543 4.82909850851654e-10
vertex 38.3180950916594 5.00114811666725 2.07444175700211e-10
endloop
endfacet
facet normal 0.857492925723045 -0.514495755410025 -1.59468728112881e-12
outer loop
vertex 38.0962299561414 4.54226202625543 4.82909850851654e-10
vertex 38.3180950916897 5.00114811670719 14.0
vertex 38.0962299561855 4.54226202628865 14.0
endloop
endfacet
facet normal 0.857492925707455 -0.51449575543601 -1.59468728120932e-12
outer loop
vertex 38.0962299561855 4.54226202628865 14.0
vertex 37.7957375871733 4.13055227591683 7.52143429555771e-10
vertex 38.0962299561414 4.54226202625543 4.82909850851654e-10
endloop
endfacet
facet normal 0.751436795411462 -0.659805079172443 -7.42034379393007e-12
outer loop
vertex 37.7957375871733 4.13055227591683 7.52143429555771e-10
vertex 38.0962299561855 4.54226202628865 14.0
vertex 37.79573758723 4.13055227594094 14.0
endloop
endfacet
facet normal 0.857492925752984 0.514495755360126 2.12785510438634e-11
outer loop
vertex 38.0962299561855 7.4577379737113 14.0
vertex 38.31809509172 6.99885188325281 -7.81463033437449e-10
vertex 38.0962299562297 7.45773797367808 -9.6031367682246e-10
endloop
endfacet
facet normal 0.935798267651025 0.352535958820288 1.09201577808831e-12
outer loop
vertex 38.31809509172 6.99885188325281 -7.81463033437449e-10
vertex 38.0962299561855 7.4577379737113 14.0
vertex 38.3180950916896 6.99885188329276 14.0
endloop
endfacet
facet normal -0.258819045119104 -0.965925826284625 8.27842428917898e-10
outer loop
vertex 34.3882285676538 7.44888872825771 -1.22329992116448e-14
vertex 34.7499999999999 7.29903810567664 14.0
vertex 34.3882285676537 7.44888873943358 14.0
endloop
endfacet
facet normal -0.49999999997128 -0.86602540380102 7.42223333202543e-10
outer loop
vertex 34.7499999999999 7.29903810567664 14.0
vertex 34.3882285676538 7.44888872825771 -1.22329992116448e-14
vertex 34.75 7.29903809450076 -1.23670559279102e-14
endloop
endfacet
facet normal 0.70710678115338 -0.707106781219715 6.06022263669801e-10
outer loop
vertex 32.9393398282201 7.0606601717798 14.0
vertex 32.7009618943232 6.74999998882411 -1.16406191529136e-14
vertex 32.9393398282202 7.06066016060393 -1.17193308436777e-14
endloop
endfacet
facet normal 0.866025403813161 -0.499999999950252 4.28522394762741e-10
outer loop
vertex 32.7009618943232 6.74999998882411 -1.16406191529136e-14
vertex 32.9393398282201 7.0606601717798 14.0
vertex 32.7009618943233 6.74999999999998 14.0
endloop
endfacet
facet normal 0.866025403755714 -0.500000000049752 4.28522394848017e-10
outer loop
vertex 32.7009618943233 6.74999999999998 14.0
vertex 32.5511112605663 6.38822855647789 -1.15950512011225e-14
vertex 32.7009618943232 6.74999998882411 -1.16406191529136e-14
endloop
endfacet
facet normal 0.965925826305652 -0.258819045040631 2.21819449082128e-10
outer loop
vertex 32.5511112605663 6.38822855647789 -1.15950512011225e-14
vertex 32.7009618943233 6.74999999999998 14.0
vertex 32.5511112605663 6.38822856765376 14.0
endloop
endfacet
facet normal -1.02740033644129e-15 -1.0 8.57045419815241e-10
outer loop
vertex 34.0 7.4999999888241 -1.20917165172072e-14
vertex 34.3882285676537 7.44888873943358 14.0
vertex 33.9999999999999 7.49999999999998 14.0
endloop
endfacet
facet normal -0.258819045085936 -0.965925826293512 8.27842428925515e-10
outer loop
vertex 34.3882285676537 7.44888873943358 14.0
vertex 34.0 7.4999999888241 -1.20917165172072e-14
vertex 34.3882285676538 7.44888872825771 -1.22329992116448e-14
endloop
endfacet
facet normal -1.0 -6.63351103514973e-11 4.32623254060511e-16
outer loop
vertex 35.4999999999999 5.99999999999998 14.0
vertex 35.4488887394335 6.38822855647789 -1.2640634466239e-14
vertex 35.4999999999999 5.99999998882411 -1.26681998255206e-14
endloop
endfacet
facet normal -0.965925826305652 -0.25881904504063 2.21819891445806e-10
outer loop
vertex 35.4488887394335 6.38822855647789 -1.2640634466239e-14
vertex 35.4999999999999 5.99999999999998 14.0
vertex 35.4488887394335 6.38822856765376 14.0
endloop
endfacet
facet normal -0.965925826305652 -0.25881904504063 2.21819891445806e-10
outer loop
vertex 35.4488887394335 6.38822855647789 -1.2640634466239e-14
vertex 35.2990381056766 6.74999999999998 14.0
vertex 35.2990381056766 6.74999998882411 -1.25780634625655e-14
endloop
endfacet
facet normal -0.866025403755714 -0.500000000049752 4.28522988788602e-10
outer loop
vertex 35.2990381056766 6.74999999999998 14.0
vertex 35.4488887394335 6.38822855647789 -1.2640634466239e-14
vertex 35.4488887394335 6.38822856765376 14.0
endloop
endfacet
facet normal 0.500000000028725 0.866025403767854 -7.42223292598369e-10
outer loop
vertex 33.25 4.70096189432332 14.0
vertex 32.9393398282202 4.93933981704429 -1.17691812792413e-14
vertex 32.9393398282202 4.93933982822016 14.0
endloop
endfacet
facet normal 0.70710678115338 0.707106781219715 -6.06022875743361e-10
outer loop
vertex 32.9393398282202 4.93933981704429 -1.17691812792413e-14
vertex 33.25 4.70096189432332 14.0
vertex 33.25 4.70096188314745 -1.18868762686337e-14
endloop
endfacet
facet normal 0.258819045119105 0.965925826284625 -8.27842421154803e-10
outer loop
vertex 33.6117714323462 4.55111126056638 14.0
vertex 33.25 4.70096188314745 -1.18868762686337e-14
vertex 33.25 4.70096189432332 14.0
endloop
endfacet
facet normal 0.499999999971279 0.866025403801021 -7.42223292626794e-10
outer loop
vertex 33.25 4.70096188314745 -1.18868762686337e-14
vertex 33.6117714323462 4.55111126056638 14.0
vertex 33.6117714323462 4.55111124939051 -1.20209329858839e-14
endloop
endfacet
facet normal 0.258819045119105 0.965925826284625 -8.27842421154803e-10
outer loop
vertex 33.6117714323462 4.55111126056638 14.0
vertex 34.0 4.49999998882411 -1.21622156793366e-14
vertex 33.6117714323462 4.55111124939051 -1.20209329858839e-14
endloop
endfacet
facet normal -1.05779937921574e-15 1.0 -8.57045433332875e-10
outer loop
vertex 34.0 4.49999998882411 -1.21622156793366e-14
vertex 33.6117714323462 4.55111126056638 14.0
vertex 34.0 4.49999999999998 14.0
endloop
endfacet
facet normal -0.258819045119106 0.965925826284625 -8.27842218673749e-10
outer loop
vertex 34.3882285676538 4.55111126056638 14.0
vertex 34.0 4.49999998882411 -1.21622156793366e-14
vertex 34.0 4.49999999999998 14.0
endloop
endfacet
facet normal -1.05779937921574e-15 1.0 -8.57045433332875e-10
outer loop
vertex 34.0 4.49999998882411 -1.21622156793366e-14
vertex 34.3882285676538 4.55111126056638 14.0
vertex 34.3882285676538 4.55111124939051 -1.23010961747493e-14
endloop
endfacet
facet normal 0.866025403813162 0.49999999995025 -4.28523144261411e-10
outer loop
vertex 32.7009618943233 5.24999999999998 14.0
vertex 32.9393398282202 4.93933981704429 -1.17691812792413e-14
vertex 32.7009618943232 5.24999998882411 -1.16758687339783e-14
endloop
endfacet
facet normal 0.70710678115338 0.707106781219715 -6.06022875743361e-10
outer loop
vertex 32.9393398282202 4.93933981704429 -1.17691812792413e-14
vertex 32.7009618943233 5.24999999999998 14.0
vertex 32.9393398282202 4.93933982822016 14.0
endloop
endfacet
facet normal -0.965925826272485 0.258819045164411 -2.2181905565131e-10
outer loop
vertex 35.4488887394335 5.61177142117033 -1.26588809937799e-14
vertex 35.4999999999999 5.99999999999998 14.0
vertex 35.4999999999999 5.99999998882411 -1.26681998255206e-14
endloop
endfacet
facet normal -1.0 -6.63351103514973e-11 4.32623254060511e-16
outer loop
vertex 35.4999999999999 5.99999999999998 14.0
vertex 35.4488887394335 5.61177142117033 -1.26588809937799e-14
vertex 35.4488887394335 5.6117714323462 14.0
endloop
endfacet
facet normal -0.866025403755714 -0.500000000049752 4.28522988788602e-10
outer loop
vertex 35.2990381056766 6.74999999999998 14.0
vertex 35.0606601717798 7.06066016060393 -1.24847509173025e-14
vertex 35.2990381056766 6.74999998882411 -1.25780634625655e-14
endloop
endfacet
facet normal -0.707106781219715 -0.70710678115338 6.06022932581807e-10
outer loop
vertex 35.0606601717798 7.06066016060393 -1.24847509173025e-14
vertex 35.2990381056766 6.74999999999998 14.0
vertex 35.0606601717797 7.0606601717798 14.0
endloop
endfacet
facet normal -0.500000000028725 0.866025403767855 -7.42222912427016e-10
outer loop
vertex 34.75 4.70096189432332 14.0
vertex 34.3882285676538 4.55111124939051 -1.23010961747493e-14
vertex 34.3882285676538 4.55111126056638 14.0
endloop
endfacet
facet normal -0.258819045085936 0.965925826293512 -8.27842218681366e-10
outer loop
vertex 34.3882285676538 4.55111124939051 -1.23010961747493e-14
vertex 34.75 4.70096189432332 14.0
vertex 34.75 4.70096188314745 -1.24281099958823e-14
endloop
endfacet
facet normal -0.707106781219712 0.707106781153383 -6.06022340595318e-10
outer loop
vertex 35.0606601717798 4.93933982822016 14.0
vertex 34.75 4.70096188314745 -1.24281099958823e-14
vertex 34.75 4.70096189432332 14.0
endloop
endfacet
facet normal -0.499999999971276 0.866025403801023 -7.42222912455442e-10
outer loop
vertex 34.75 4.70096188314745 -1.24281099958823e-14
vertex 35.0606601717798 4.93933982822016 14.0
vertex 35.0606601717798 4.93933981704429 -1.25346013528661e-14
endloop
endfacet
facet normal -0.707106781219712 0.707106781153383 -6.06022340595318e-10
outer loop
vertex 35.0606601717798 4.93933982822016 14.0
vertex 35.2990381056766 5.24999998882411 -1.26133130436302e-14
vertex 35.0606601717798 4.93933981704429 -1.25346013528661e-14
endloop
endfacet
facet normal -0.866025403755714 0.500000000049752 -4.28522247401417e-10
outer loop
vertex 35.2990381056766 5.24999998882411 -1.26133130436302e-14
vertex 35.0606601717798 4.93933982822016 14.0
vertex 35.2990381056766 5.24999999999998 14.0
endloop
endfacet
facet normal -0.866025403813159 0.499999999950255 -4.28522247316144e-10
outer loop
vertex 35.2990381056766 5.24999999999998 14.0
vertex 35.4488887394335 5.61177142117033 -1.26588809937799e-14
vertex 35.2990381056766 5.24999998882411 -1.26133130436302e-14
endloop
endfacet
facet normal -0.965925826272485 0.258819045164411 -2.2181905565131e-10
outer loop
vertex 35.4488887394335 5.61177142117033 -1.26588809937799e-14
vertex 35.2990381056766 5.24999999999998 14.0
vertex 35.4488887394335 5.6117714323462 14.0
endloop
endfacet
facet normal 0.965925826305652 0.25881904504063 -2.2182028473211e-10
outer loop
vertex 32.5511112605663 5.6117714323462 14.0
vertex 32.7009618943232 5.24999998882411 -1.16758687339783e-14
vertex 32.5511112605663 5.61177142117033 -1.16132977286634e-14
endloop
endfacet
facet normal 0.866025403755716 0.50000000004975 -4.28523144346687e-10
outer loop
vertex 32.7009618943232 5.24999998882411 -1.16758687339783e-14
vertex 32.5511112605663 5.6117714323462 14.0
vertex 32.7009618943233 5.24999999999998 14.0
endloop
endfacet
facet normal -0.500000000028724 -0.866025403767855 7.42223333174119e-10
outer loop
vertex 34.75 7.29903809450076 -1.23670559279102e-14
vertex 35.0606601717797 7.0606601717798 14.0
vertex 34.7499999999999 7.29903810567664 14.0
endloop
endfacet
facet normal -0.707106781153381 -0.707106781219714 6.06022932638658e-10
outer loop
vertex 35.0606601717797 7.0606601717798 14.0
vertex 34.75 7.29903809450076 -1.23670559279102e-14
vertex 35.0606601717798 7.06066016060393 -1.24847509173025e-14
endloop
endfacet
facet normal 0.258819045119104 -0.965925826284625 8.27842210113679e-10
outer loop
vertex 33.6117714323462 7.44888872825771 -1.19528360217945e-14
vertex 33.9999999999999 7.49999999999998 14.0
vertex 33.6117714323461 7.44888873943358 14.0
endloop
endfacet
facet normal 5.97550708370855e-17 -1.0 8.57045419815241e-10
outer loop
vertex 33.9999999999999 7.49999999999998 14.0
vertex 33.6117714323462 7.44888872825771 -1.19528360217945e-14
vertex 34.0 7.4999999888241 -1.20917165172072e-14
endloop
endfacet
facet normal 0.500000000028724 -0.866025403767855 7.422228728448e-10
outer loop
vertex 33.25 7.29903809450076 -1.18258222016463e-14
vertex 33.6117714323461 7.44888873943358 14.0
vertex 33.2499999999999 7.29903810567663 14.0
endloop
endfacet
facet normal 0.258819045085938 -0.965925826293512 8.27842210121296e-10
outer loop
vertex 33.6117714323461 7.44888873943358 14.0
vertex 33.25 7.29903809450076 -1.18258222016463e-14
vertex 33.6117714323462 7.44888872825771 -1.19528360217945e-14
endloop
endfacet
facet normal 0.707106781219713 -0.707106781153382 6.06022263612951e-10
outer loop
vertex 32.9393398282202 7.06066016060393 -1.17193308436777e-14
vertex 33.2499999999999 7.29903810567663 14.0
vertex 32.9393398282201 7.0606601717798 14.0
endloop
endfacet
facet normal 0.499999999971278 -0.866025403801021 7.42222872873226e-10
outer loop
vertex 33.2499999999999 7.29903810567663 14.0
vertex 32.9393398282202 7.06066016060393 -1.17193308436777e-14
vertex 33.25 7.29903809450076 -1.18258222016463e-14
endloop
endfacet
facet normal 0.621062139865014 -0.783761327462826 -7.71514067823232e-12
outer loop
vertex 37.4263427298349 3.77934290573459 1.00642980220245e-09
vertex 37.0 3.49999999999998 14.0
vertex 36.9999999999242 3.49999999999998 1.23754030254923e-09
endloop
endfacet
facet normal 0.54804672429894 -0.83644771981589 -2.41440460191425e-12
outer loop
vertex 37.0 3.49999999999998 14.0
vertex 37.4263427298349 3.77934290573459 1.00642980220245e-09
vertex 37.4263427299022 3.77934290574751 14.0
endloop
endfacet
facet normal 0.751436795319528 0.659805079277144 3.45916436836497e-11
outer loop
vertex 37.7957375872299 7.86944772405901 14.0
vertex 37.4263427299695 8.22065709423952 -1.19211748201562e-09
vertex 37.4263427299022 8.22065709425245 14.0
endloop
endfacet
facet normal 0.621062139701851 0.783761327592117 1.52019434939997e-11
outer loop
vertex 37.4263427299695 8.22065709423952 -1.19211748201562e-09
vertex 37.7957375872299 7.86944772405901 14.0
vertex 37.7957375872866 7.86944772403489 -1.09869072400486e-09
endloop
endfacet
facet normal 0.6210621397076 0.783761327587562 1.52019434950376e-11
outer loop
vertex 37.4263427299022 8.22065709425245 14.0
vertex 37.0000000000758 8.49999999999998 -1.23756813139956e-09
vertex 37.0 8.49999999999998 14.0
endloop
endfacet
facet normal 0.54804672432429 0.836447719799281 2.41398798400905e-12
outer loop
vertex 37.0000000000758 8.49999999999998 -1.23756813139956e-09
vertex 37.4263427299022 8.22065709425245 14.0
vertex 37.4263427299695 8.22065709423952 -1.19211748201562e-09
endloop
endfacet
facet normal 0.751436795411462 -0.659805079172443 -7.42034379393007e-12
outer loop
vertex 37.7957375871733 4.13055227591683 7.52143429555771e-10
vertex 37.4263427299022 3.77934290574751 14.0
vertex 37.4263427298349 3.77934290573459 1.00642980220245e-09
endloop
endfacet
facet normal 0.621062139843946 -0.78376132747952 -7.71514067665761e-12
outer loop
vertex 37.4263427299022 3.77934290574751 14.0
vertex 37.7957375871733 4.13055227591683 7.52143429555771e-10
vertex 37.79573758723 4.13055227594094 14.0
endloop
endfacet
facet normal 3.4585746721034e-16 2.31634169790221e-30 1.0
outer loop
vertex 30.0 8.49999999999998 14.0
vertex 37.4263427299022 8.22065709425245 14.0
vertex 37.0 8.49999999999998 14.0
endloop
endfacet
facet normal 3.4585746721034e-16 2.31634169790221e-30 1.0
outer loop
vertex 37.4263427299022 8.22065709425245 14.0
vertex 30.0 8.49999999999998 14.0
vertex 33.6117714323461 7.44888873943358 14.0
endloop
endfacet
facet normal 3.4585746721034e-16 2.31634169790221e-30 1.0
outer loop
vertex 33.6117714323461 7.44888873943358 14.0
vertex 30.0 8.49999999999998 14.0
vertex 33.2499999999999 7.29903810567663 14.0
endloop
endfacet
facet normal 3.4585746721034e-16 2.31634169790221e-30 1.0
outer loop
vertex 33.2499999999999 7.29903810567663 14.0
vertex 30.0 8.49999999999998 14.0
vertex 32.9393398282201 7.0606601717798 14.0
endloop
endfacet
facet normal 3.4585746721034e-16 2.31634169790221e-30 1.0
outer loop
vertex 32.9393398282201 7.0606601717798 14.0
vertex 30.0 8.49999999999998 14.0
vertex 30.0 3.49999999999998 14.0
endloop
endfacet
facet normal 3.4585746721034e-16 2.31634169790221e-30 1.0
outer loop
vertex 37.4263427299022 8.22065709425245 14.0
vertex 33.6117714323461 7.44888873943358 14.0
vertex 33.9999999999999 7.49999999999998 14.0
endloop
endfacet
facet normal 3.4585746721034e-16 2.31634169790221e-30 1.0
outer loop
vertex 37.4263427299022 8.22065709425245 14.0
vertex 33.9999999999999 7.49999999999998 14.0
vertex 37.7957375872299 7.86944772405901 14.0
endloop
endfacet
facet normal 3.4585746721034e-16 2.31634169790221e-30 1.0
outer loop
vertex 32.9393398282201 7.0606601717798 14.0
vertex 30.0 3.49999999999998 14.0
vertex 32.7009618943233 6.74999999999998 14.0
endloop
endfacet
facet normal 3.4585746721034e-16 2.31634169790221e-30 1.0
outer loop
vertex 32.7009618943233 6.74999999999998 14.0
vertex 30.0 3.49999999999998 14.0
vertex 32.5511112605663 6.38822856765376 14.0
endloop
endfacet
facet normal 3.4585746721034e-16 2.31634169790221e-30 1.0
outer loop
vertex 32.5511112605663 6.38822856765376 14.0
vertex 30.0 3.49999999999998 14.0
vertex 32.4999999999999 5.99999999999998 14.0
endloop
endfacet
facet normal 3.4585746721034e-16 2.31634169790221e-30 1.0
outer loop
vertex 32.4999999999999 5.99999999999998 14.0
vertex 30.0 3.49999999999998 14.0
vertex 32.5511112605663 5.6117714323462 14.0
endloop
endfacet
facet normal 3.4585746721034e-16 2.31634169790221e-30 1.0
outer loop
vertex 32.5511112605663 5.6117714323462 14.0
vertex 30.0 3.49999999999998 14.0
vertex 32.7009618943233 5.24999999999998 14.0
endloop
endfacet
facet normal 3.4585746721034e-16 2.31634169790221e-30 1.0
outer loop
vertex 32.7009618943233 5.24999999999998 14.0
vertex 30.0 3.49999999999998 14.0
vertex 32.9393398282202 4.93933982822016 14.0
endloop
endfacet
facet normal 3.4585746721034e-16 2.31634169790221e-30 1.0
outer loop
vertex 32.9393398282202 4.93933982822016 14.0
vertex 30.0 3.49999999999998 14.0
vertex 33.25 4.70096189432332 14.0
endloop
endfacet
facet normal 3.4585746721034e-16 2.31634169790221e-30 1.0
outer loop
vertex 33.25 4.70096189432332 14.0
vertex 30.0 3.49999999999998 14.0
vertex 33.6117714323462 4.55111126056638 14.0
endloop
endfacet
facet normal 3.4585746721034e-16 2.31634169790221e-30 1.0
outer loop
vertex 33.6117714323462 4.55111126056638 14.0
vertex 30.0 3.49999999999998 14.0
vertex 34.0 4.49999999999998 14.0
endloop
endfacet
facet normal 3.4585746721034e-16 2.31634169790221e-30 1.0
outer loop
vertex 34.0 4.49999999999998 14.0
vertex 30.0 3.49999999999998 14.0
vertex 37.79573758723 4.13055227594094 14.0
endloop
endfacet
facet normal 3.4585746721034e-16 2.31634169790221e-30 1.0
outer loop
vertex 37.79573758723 4.13055227594094 14.0
vertex 30.0 3.49999999999998 14.0
vertex 37.4263427299022 3.77934290574751 14.0
endloop
endfacet
facet normal 3.4585746721034e-16 2.31634169790221e-30 1.0
outer loop
vertex 37.4263427299022 3.77934290574751 14.0
vertex 30.0 3.49999999999998 14.0
vertex 37.0 3.49999999999998 14.0
endloop
endfacet
facet normal 3.4585746721034e-16 2.31634169790221e-30 1.0
outer loop
vertex 33.9999999999999 7.49999999999998 14.0
vertex 38.0962299561855 7.4577379737113 14.0
vertex 37.7957375872299 7.86944772405901 14.0
endloop
endfacet
facet normal 3.4585746721034e-16 2.31634169790221e-30 1.0
outer loop
vertex 38.0962299561855 7.4577379737113 14.0
vertex 33.9999999999999 7.49999999999998 14.0
vertex 34.3882285676537 7.44888873943358 14.0
endloop
endfacet
facet normal 3.4585746721034e-16 2.31634169790221e-30 1.0
outer loop
vertex 38.0962299561855 7.4577379737113 14.0
vertex 34.3882285676537 7.44888873943358 14.0
vertex 38.3180950916896 6.99885188329276 14.0
endloop
endfacet
facet normal 3.4585746721034e-16 2.31634169790221e-30 1.0
outer loop
vertex 38.3180950916896 6.99885188329276 14.0
vertex 34.3882285676537 7.44888873943358 14.0
vertex 34.7499999999999 7.29903810567664 14.0
endloop
endfacet
facet normal 3.4585746721034e-16 2.31634169790221e-30 1.0
outer loop
vertex 38.3180950916896 6.99885188329276 14.0
vertex 34.7499999999999 7.29903810567664 14.0
vertex 35.0606601717797 7.0606601717798 14.0
endloop
endfacet
facet normal 3.4585746721034e-16 2.31634169790221e-30 1.0
outer loop
vertex 38.3180950916896 6.99885188329276 14.0
vertex 35.0606601717797 7.0606601717798 14.0
vertex 35.2990381056766 6.74999999999998 14.0
endloop
endfacet
facet normal 3.4585746721034e-16 2.31634169790221e-30 1.0
outer loop
vertex 38.3180950916896 6.99885188329276 14.0
vertex 35.2990381056766 6.74999999999998 14.0
vertex 38.4541528384119 6.50764024673602 14.0
endloop
endfacet
facet normal 3.4585746721034e-16 2.31634169790221e-30 1.0
outer loop
vertex 38.4541528384119 6.50764024673602 14.0
vertex 35.2990381056766 6.74999999999998 14.0
vertex 35.4488887394335 6.38822856765376 14.0
endloop
endfacet
facet normal 3.4585746721034e-16 2.31634169790221e-30 1.0
outer loop
vertex 38.4541528384119 6.50764024673602 14.0
vertex 35.4488887394335 6.38822856765376 14.0
vertex 38.4999999999999 5.99999999999998 14.0
endloop
endfacet
facet normal 3.4585746721034e-16 2.31634169790221e-30 1.0
outer loop
vertex 38.4999999999999 5.99999999999998 14.0
vertex 35.4488887394335 6.38822856765376 14.0
vertex 35.4999999999999 5.99999999999998 14.0
endloop
endfacet
facet normal 3.4585746721034e-16 2.31634169790221e-30 1.0
outer loop
vertex 38.4999999999999 5.99999999999998 14.0
vertex 35.4999999999999 5.99999999999998 14.0
vertex 35.4488887394335 5.6117714323462 14.0
endloop
endfacet
facet normal 3.4585746721034e-16 2.31634169790221e-30 1.0
outer loop
vertex 38.4999999999999 5.99999999999998 14.0
vertex 35.4488887394335 5.6117714323462 14.0
vertex 38.4541528384119 5.49235975326394 14.0
endloop
endfacet
facet normal 3.4585746721034e-16 2.31634169790221e-30 1.0
outer loop
vertex 38.4541528384119 5.49235975326394 14.0
vertex 35.4488887394335 5.6117714323462 14.0
vertex 35.2990381056766 5.24999999999998 14.0
endloop
endfacet
facet normal 3.4585746721034e-16 2.31634169790221e-30 1.0
outer loop
vertex 38.4541528384119 5.49235975326394 14.0
vertex 35.2990381056766 5.24999999999998 14.0
vertex 38.3180950916897 5.00114811670719 14.0
endloop
endfacet
facet normal 3.4585746721034e-16 2.31634169790221e-30 1.0
outer loop
vertex 38.3180950916897 5.00114811670719 14.0
vertex 35.2990381056766 5.24999999999998 14.0
vertex 35.0606601717798 4.93933982822016 14.0
endloop
endfacet
facet normal 3.4585746721034e-16 2.31634169790221e-30 1.0
outer loop
vertex 38.3180950916897 5.00114811670719 14.0
vertex 35.0606601717798 4.93933982822016 14.0
vertex 38.0962299561855 4.54226202628865 14.0
endloop
endfacet
facet normal 3.4585746721034e-16 2.31634169790221e-30 1.0
outer loop
vertex 38.0962299561855 4.54226202628865 14.0
vertex 35.0606601717798 4.93933982822016 14.0
vertex 34.75 4.70096189432332 14.0
endloop
endfacet
facet normal 3.4585746721034e-16 2.31634169790221e-30 1.0
outer loop
vertex 38.0962299561855 4.54226202628865 14.0
vertex 34.75 4.70096189432332 14.0
vertex 34.3882285676538 4.55111126056638 14.0
endloop
endfacet
facet normal 3.4585746721034e-16 2.31634169790221e-30 1.0
outer loop
vertex 38.0962299561855 4.54226202628865 14.0
vertex 34.3882285676538 4.55111126056638 14.0
vertex 34.0 4.49999999999998 14.0
endloop
endfacet
facet normal 3.4585746721034e-16 2.31634169790221e-30 1.0
outer loop
vertex 38.0962299561855 4.54226202628865 14.0
vertex 34.0 4.49999999999998 14.0
vertex 37.79573758723 4.13055227594094 14.0
endloop
endfacet
facet normal 0.965925826305652 -0.258819045040631 2.21819449082128e-10
outer loop
vertex 32.5511112605663 6.38822855647789 -1.15950512011225e-14
vertex 32.4999999999999 5.99999999999998 14.0
vertex 32.4999999999999 5.99999998882411 -1.15857323738137e-14
endloop
endfacet
facet normal 1.0 -6.63314531307277e-11 -4.32507411690776e-16
outer loop
vertex 32.4999999999999 5.99999999999998 14.0
vertex 32.5511112605663 6.38822855647789 -1.15950512011225e-14
vertex 32.5511112605663 6.38822856765376 14.0
endloop
endfacet
facet normal 1.0 -6.63314531307277e-11 -4.32507411690776e-16
outer loop
vertex 32.4999999999999 5.99999999999998 14.0
vertex 32.5511112605663 5.61177142117033 -1.16132977286634e-14
vertex 32.4999999999999 5.99999998882411 -1.15857323738137e-14
endloop
endfacet
facet normal 0.965925826272485 0.258819045164409 -2.21820284838194e-10
outer loop
vertex 32.5511112605663 5.61177142117033 -1.16132977286634e-14
vertex 32.4999999999999 5.99999999999998 14.0
vertex 32.5511112605663 5.6117714323462 14.0
endloop
endfacet
facet normal -1.0 5.55111512312578e-16 3.60822483003176e-16
outer loop
vertex 3.88578059065341e-16 0.0 0.0
vertex 4.769911532229e-15 4.75 4.8349364905389
vertex 7.04991620681628e-15 12.0 2.81996648189132e-16
endloop
endfacet
facet normal -1.0 5.55111512312578e-16 3.60822483003176e-16
outer loop
vertex 4.769911532229e-15 4.75 4.8349364905389
vertex 3.88578059065341e-16 0.0 0.0
vertex 4.6258466659454e-15 4.23223304703363 5.23223304703363
endloop
endfacet
facet normal -1.0 5.55111512312578e-16 3.60822483003176e-16
outer loop
vertex 4.6258466659454e-15 4.23223304703363 5.23223304703363
vertex 3.88578059065341e-16 0.0 0.0
vertex 4.59212473121936e-15 3.8349364905389 5.75
endloop
endfacet
facet normal -1.0 5.55111512312578e-16 3.60822483003176e-16
outer loop
vertex 4.59212473121936e-15 3.8349364905389 5.75
vertex 3.88578059065341e-16 0.0 0.0
vertex 5.4400928211098e-15 0.0 14.0
endloop
endfacet
facet normal -1.0 5.55111512312578e-16 3.60822483003176e-16
outer loop
vertex 7.04991620681628e-15 12.0 2.81996648189132e-16
vertex 4.769911532229e-15 4.75 4.8349364905389
vertex 5.01450154751136e-15 5.3529523872437 4.58518543427733
endloop
endfacet
facet normal -1.0 5.55111512312578e-16 3.60822483003176e-16
outer loop
vertex 7.04991620681628e-15 12.0 2.81996648189132e-16
vertex 5.01450154751136e-15 5.3529523872437 4.58518543427733
vertex 5.3429483064551e-15 6.0 4.5
endloop
endfacet
facet normal -1.0 5.55111512312578e-16 3.60822483003176e-16
outer loop
vertex 4.59212473121936e-15 3.8349364905389 5.75
vertex 5.4400928211098e-15 0.0 14.0
vertex 4.67104382217428e-15 3.58518543427733 6.3529523872437
endloop
endfacet
facet normal -1.0 5.55111512312578e-16 3.60822483003176e-16
outer loop
vertex 4.67104382217428e-15 3.58518543427733 6.3529523872437
vertex 5.4400928211098e-15 0.0 14.0
vertex 4.8572257331816e-15 3.5 7.0
endloop
endfacet
facet normal -1.0 5.55111512312578e-16 3.60822483003176e-16
outer loop
vertex 4.8572257331816e-15 3.5 7.0
vertex 5.4400928211098e-15 0.0 14.0
vertex 5.13798247468629e-15 3.58518543427733 7.6470476127563
endloop
endfacet
facet normal -1.0 5.55111512312578e-16 3.60822483003176e-16
outer loop
vertex 5.13798247468629e-15 3.58518543427733 7.6470476127563
vertex 5.4400928211098e-15 0.0 14.0
vertex 5.49418093872728e-15 3.8349364905389 8.25
endloop
endfacet
facet normal -1.0 5.55111512312578e-16 3.60822483003176e-16
outer loop
vertex 5.49418093872728e-15 3.8349364905389 8.25
vertex 5.4400928211098e-15 0.0 14.0
vertex 5.90154678862597e-15 4.23223304703363 8.76776695296637
endloop
endfacet
facet normal -1.0 5.55111512312578e-16 3.60822483003176e-16
outer loop
vertex 5.90154678862597e-15 4.23223304703363 8.76776695296637
vertex 5.4400928211098e-15 0.0 14.0
vertex 6.33231871491564e-15 4.75 9.1650635094611
endloop
endfacet
facet normal -1.0 5.55111512312578e-16 3.60822483003176e-16
outer loop
vertex 6.33231871491564e-15 4.75 9.1650635094611
vertex 5.4400928211098e-15 0.0 14.0
vertex 6.75714032270394e-15 5.3529523872437 9.41481456572267
endloop
endfacet
facet normal -1.0 5.55111512312578e-16 3.60822483003176e-16
outer loop
vertex 6.75714032270394e-15 5.3529523872437 9.41481456572267
vertex 5.4400928211098e-15 0.0 14.0
vertex 7.14706072147099e-15 6.0 9.5
endloop
endfacet
facet normal -1.0 5.55111512312578e-16 3.60822483003176e-16
outer loop
vertex 7.04991620681628e-15 12.0 2.81996648189132e-16
vertex 6.9958280891988e-15 8.16506350946109 5.75
vertex 1.21014309688607e-14 12.0 14.0
endloop
endfacet
facet normal -1.0 5.55111512312578e-16 3.60822483003176e-16
outer loop
vertex 6.9958280891988e-15 8.16506350946109 5.75
vertex 7.04991620681628e-15 12.0 2.81996648189132e-16
vertex 6.58846223930012e-15 7.76776695296637 5.23223304703363
endloop
endfacet
facet normal -1.0 5.55111512312578e-16 3.60822483003176e-16
outer loop
vertex 6.58846223930012e-15 7.76776695296637 5.23223304703363
vertex 7.04991620681628e-15 12.0 2.81996648189132e-16
vertex 6.15769031301044e-15 7.25 4.8349364905389
endloop
endfacet
facet normal -1.0 5.55111512312578e-16 3.60822483003176e-16
outer loop
vertex 6.15769031301044e-15 7.25 4.8349364905389
vertex 7.04991620681628e-15 12.0 2.81996648189132e-16
vertex 5.73286870522214e-15 6.6470476127563 4.58518543427733
endloop
endfacet
facet normal -1.0 5.55111512312578e-16 3.60822483003176e-16
outer loop
vertex 5.73286870522214e-15 6.6470476127563 4.58518543427733
vertex 7.04991620681628e-15 12.0 2.81996648189132e-16
vertex 5.3429483064551e-15 6.0 4.5
endloop
endfacet
facet normal -1.0 5.55111512312578e-16 3.60822483003176e-16
outer loop
vertex 1.21014309688607e-14 12.0 14.0
vertex 6.9958280891988e-15 8.16506350946109 5.75
vertex 7.35202655323979e-15 8.41481456572267 6.35295238724369
endloop
endfacet
facet normal -1.0 5.55111512312578e-16 3.60822483003176e-16
outer loop
vertex 1.21014309688607e-14 12.0 14.0
vertex 7.35202655323979e-15 8.41481456572267 6.35295238724369
vertex 7.63278329474449e-15 8.5 7.0
endloop
endfacet
facet normal -1.0 5.55111512312578e-16 3.60822483003176e-16
outer loop
vertex 1.21014309688607e-14 12.0 14.0
vertex 7.63278329474449e-15 8.5 7.0
vertex 7.8189652057518e-15 8.41481456572267 7.6470476127563
endloop
endfacet
facet normal -1.0 5.55111512312578e-16 3.60822483003176e-16
outer loop
vertex 1.21014309688607e-14 12.0 14.0
vertex 7.8189652057518e-15 8.41481456572267 7.6470476127563
vertex 7.89788429670674e-15 8.1650635094611 8.25
endloop
endfacet
facet normal -1.0 5.55111512312578e-16 3.60822483003176e-16
outer loop
vertex 1.21014309688607e-14 12.0 14.0
vertex 7.89788429670674e-15 8.1650635094611 8.25
vertex 7.86416236198068e-15 7.76776695296637 8.76776695296637
endloop
endfacet
facet normal -1.0 5.55111512312578e-16 3.60822483003176e-16
outer loop
vertex 1.21014309688607e-14 12.0 14.0
vertex 7.86416236198068e-15 7.76776695296637 8.76776695296637
vertex 7.72009749569709e-15 7.25 9.16506350946109
endloop
endfacet
facet normal -1.0 5.55111512312578e-16 3.60822483003176e-16
outer loop
vertex 1.21014309688607e-14 12.0 14.0
vertex 7.72009749569709e-15 7.25 9.16506350946109
vertex 7.47550748041473e-15 6.6470476127563 9.41481456572267
endloop
endfacet
facet normal -1.0 5.55111512312578e-16 3.60822483003176e-16
outer loop
vertex 1.21014309688607e-14 12.0 14.0
vertex 7.47550748041473e-15 6.6470476127563 9.41481456572267
vertex 7.14706072147099e-15 6.0 9.5
endloop
endfacet
facet normal -1.0 5.55111512312578e-16 3.60822483003176e-16
outer loop
vertex 1.21014309688607e-14 12.0 14.0
vertex 7.14706072147099e-15 6.0 9.5
vertex 5.4400928211098e-15 0.0 14.0
endloop
endfacet
facet normal -3.08051125380632e-11 -4.95021700206037e-10 -1.0
outer loop
vertex 38.0962299562297 7.45773797367808 -9.6031367682246e-10
vertex 34.0 7.4999999888241 -1.20917165172072e-14
vertex 37.7957375872866 7.86944772403489 -1.09869072400486e-09
endloop
endfacet
facet normal -3.08051125380632e-11 -4.95021700206037e-10 -1.0
outer loop
vertex 34.0 7.4999999888241 -1.20917165172072e-14
vertex 38.0962299562297 7.45773797367808 -9.6031367682246e-10
vertex 34.3882285676538 7.44888872825771 -1.22329992116448e-14
endloop
endfacet
facet normal -3.08051125380632e-11 -4.95021700206037e-10 -1.0
outer loop
vertex 34.3882285676538 7.44888872825771 -1.22329992116448e-14
vertex 38.0962299562297 7.45773797367808 -9.6031367682246e-10
vertex 38.31809509172 6.99885188325281 -7.81463033437449e-10
endloop
endfacet
facet normal -3.08051125380632e-11 -4.95021700206037e-10 -1.0
outer loop
vertex 34.3882285676538 7.44888872825771 -1.22329992116448e-14
vertex 38.31809509172 6.99885188325281 -7.81463033437449e-10
vertex 34.75 7.29903809450076 -1.23670559279102e-14
endloop
endfacet
facet normal -3.08051125380632e-11 -4.95021700206037e-10 -1.0
outer loop
vertex 34.75 7.29903809450076 -1.23670559279102e-14
vertex 38.31809509172 6.99885188325281 -7.81463033437449e-10
vertex 35.0606601717798 7.06066016060393 -1.24847509173025e-14
endloop
endfacet
facet normal -3.08051125380632e-11 -4.95021700206037e-10 -1.0
outer loop
vertex 35.0606601717798 7.06066016060393 -1.24847509173025e-14
vertex 38.31809509172 6.99885188325281 -7.81463033437449e-10
vertex 35.2990381056766 6.74999998882411 -1.25780634625655e-14
endloop
endfacet
facet normal -3.08051125380632e-11 -4.95021700206037e-10 -1.0
outer loop
vertex 35.2990381056766 6.74999998882411 -1.25780634625655e-14
vertex 38.31809509172 6.99885188325281 -7.81463033437449e-10
vertex 38.4541528384273 6.50764024669194 -5.67926772115503e-10
endloop
endfacet
facet normal -3.08051125380632e-11 -4.95021700206037e-10 -1.0
outer loop
vertex 35.2990381056766 6.74999998882411 -1.25780634625655e-14
vertex 38.4541528384273 6.50764024669194 -5.67926772115503e-10
vertex 35.4488887394335 6.38822855647789 -1.2640634466239e-14
endloop
endfacet
facet normal -3.08051125380632e-11 -4.95021700206037e-10 -1.0
outer loop
vertex 35.4488887394335 6.38822855647789 -1.2640634466239e-14
vertex 38.4541528384273 6.50764024669194 -5.67926772115503e-10
vertex 38.4999999999999 5.99999999995452 -3.26616628743004e-10
endloop
endfacet
facet normal -3.08051125380632e-11 -4.95021700206037e-10 -1.0
outer loop
vertex 35.4488887394335 6.38822855647789 -1.2640634466239e-14
vertex 38.4999999999999 5.99999999995452 -3.26616628743004e-10
vertex 35.4999999999999 5.99999998882411 -1.26681998255206e-14
endloop
endfacet
facet normal -3.08051125380632e-11 -4.95021700206037e-10 -1.0
outer loop
vertex 35.4999999999999 5.99999998882411 -1.26681998255206e-14
vertex 38.4999999999999 5.99999999995452 -3.26616628743004e-10
vertex 38.4541528383965 5.49235975321987 -6.53410895886934e-11
endloop
endfacet
facet normal -3.08051125380632e-11 -4.95021700206037e-10 -1.0
outer loop
vertex 35.4999999999999 5.99999998882411 -1.26681998255206e-14
vertex 38.4541528383965 5.49235975321987 -6.53410895886934e-11
vertex 35.4488887394335 5.61177142117033 -1.26588809937799e-14
endloop
endfacet
facet normal -3.08051125380632e-11 -4.95021700206037e-10 -1.0
outer loop
vertex 35.4488887394335 5.61177142117033 -1.26588809937799e-14
vertex 38.4541528383965 5.49235975321987 -6.53410895886934e-11
vertex 35.2990381056766 5.24999998882411 -1.26133130436302e-14
endloop
endfacet
facet normal -3.08051125380632e-11 -4.95021700206037e-10 -1.0
outer loop
vertex 35.2990381056766 5.24999998882411 -1.26133130436302e-14
vertex 38.4541528383965 5.49235975321987 -6.53410895886934e-11
vertex 38.3180950916594 5.00114811666725 2.07444175700211e-10
endloop
endfacet
facet normal -3.08051125380632e-11 -4.95021700206037e-10 -1.0
outer loop
vertex 35.2990381056766 5.24999998882411 -1.26133130436302e-14
vertex 38.3180950916594 5.00114811666725 2.07444175700211e-10
vertex 35.0606601717798 4.93933981704429 -1.25346013528661e-14
endloop
endfacet
facet normal -3.08051125380632e-11 -4.95021700206037e-10 -1.0
outer loop
vertex 35.0606601717798 4.93933981704429 -1.25346013528661e-14
vertex 38.3180950916594 5.00114811666725 2.07444175700211e-10
vertex 38.0962299561414 4.54226202625543 4.82909850851654e-10
endloop
endfacet
facet normal -3.08051125380632e-11 -4.95021700206037e-10 -1.0
outer loop
vertex 35.0606601717798 4.93933981704429 -1.25346013528661e-14
vertex 38.0962299561414 4.54226202625543 4.82909850851654e-10
vertex 34.75 4.70096188314745 -1.24281099958823e-14
endloop
endfacet
facet normal -3.08051125380632e-11 -4.95021700206037e-10 -1.0
outer loop
vertex 34.75 4.70096188314745 -1.24281099958823e-14
vertex 38.0962299561414 4.54226202625543 4.82909850851654e-10
vertex 34.3882285676538 4.55111124939051 -1.23010961747493e-14
endloop
endfacet
facet normal -3.08051125380632e-11 -4.95021700206037e-10 -1.0
outer loop
vertex 34.3882285676538 4.55111124939051 -1.23010961747493e-14
vertex 38.0962299561414 4.54226202625543 4.82909850851654e-10
vertex 34.0 4.49999998882411 -1.21622156793366e-14
endloop
endfacet
facet normal -3.08051125380632e-11 -4.95021700206037e-10 -1.0
outer loop
vertex 34.0 4.49999998882411 -1.21622156793366e-14
vertex 38.0962299561414 4.54226202625543 4.82909850851654e-10
vertex 37.7957375871733 4.13055227591683 7.52143429555771e-10
endloop
endfacet
facet normal -3.08051125380632e-11 -4.95021700206037e-10 -1.0
outer loop
vertex 37.4263427299695 8.22065709423952 -1.19211748201562e-09
vertex 30.0000000000758 8.49999999999998 -1.23756560564218e-09
vertex 37.0000000000758 8.49999999999998 -1.23756813139956e-09
endloop
endfacet
facet normal -3.08051125380632e-11 -4.95021700206037e-10 -1.0
outer loop
vertex 30.0000000000758 8.49999999999998 -1.23756560564218e-09
vertex 37.4263427299695 8.22065709423952 -1.19211748201562e-09
vertex 33.6117714323462 7.44888872825771 -1.19528360217945e-14
endloop
endfacet
facet normal -3.08051125380632e-11 -4.95021700206037e-10 -1.0
outer loop
vertex 30.0000000000758 8.49999999999998 -1.23756560564218e-09
vertex 33.6117714323462 7.44888872825771 -1.19528360217945e-14
vertex 33.25 7.29903809450076 -1.18258222016463e-14
endloop
endfacet
facet normal -3.08051125380632e-11 -4.95021700206037e-10 -1.0
outer loop
vertex 30.0000000000758 8.49999999999998 -1.23756560564218e-09
vertex 33.25 7.29903809450076 -1.18258222016463e-14
vertex 32.9393398282202 7.06066016060393 -1.17193308436777e-14
endloop
endfacet
facet normal -3.08051125380632e-11 -4.95021700206037e-10 -1.0
outer loop
vertex 30.0000000000758 8.49999999999998 -1.23756560564218e-09
vertex 32.9393398282202 7.06066016060393 -1.17193308436777e-14
vertex 29.9999999999242 3.49999999999998 1.23754282830661e-09
endloop
endfacet
facet normal -3.08051125380632e-11 -4.95021700206037e-10 -1.0
outer loop
vertex 33.6117714323462 7.44888872825771 -1.19528360217945e-14
vertex 37.4263427299695 8.22065709423952 -1.19211748201562e-09
vertex 34.0 7.4999999888241 -1.20917165172072e-14
endloop
endfacet
facet normal -3.08051125380632e-11 -4.95021700206037e-10 -1.0
outer loop
vertex 34.0 7.4999999888241 -1.20917165172072e-14
vertex 37.4263427299695 8.22065709423952 -1.19211748201562e-09
vertex 37.7957375872866 7.86944772403489 -1.09869072400486e-09
endloop
endfacet
facet normal -3.08051125380632e-11 -4.95021700206037e-10 -1.0
outer loop
vertex 29.9999999999242 3.49999999999998 1.23754282830661e-09
vertex 32.9393398282202 7.06066016060393 -1.17193308436777e-14
vertex 32.7009618943232 6.74999998882411 -1.16406191529136e-14
endloop
endfacet
facet normal -3.08051125380632e-11 -4.95021700206037e-10 -1.0
outer loop
vertex 29.9999999999242 3.49999999999998 1.23754282830661e-09
vertex 32.7009618943232 6.74999998882411 -1.16406191529136e-14
vertex 32.5511112605663 6.38822855647789 -1.15950512011225e-14
endloop
endfacet
facet normal -3.08051125380632e-11 -4.95021700206037e-10 -1.0
outer loop
vertex 29.9999999999242 3.49999999999998 1.23754282830661e-09
vertex 32.5511112605663 6.38822855647789 -1.15950512011225e-14
vertex 32.4999999999999 5.99999998882411 -1.15857323738137e-14
endloop
endfacet
facet normal -3.08051125380632e-11 -4.95021700206037e-10 -1.0
outer loop
vertex 29.9999999999242 3.49999999999998 1.23754282830661e-09
vertex 32.4999999999999 5.99999998882411 -1.15857323738137e-14
vertex 32.5511112605663 5.61177142117033 -1.16132977286634e-14
endloop
endfacet
facet normal -3.08051125380632e-11 -4.95021700206037e-10 -1.0
outer loop
vertex 29.9999999999242 3.49999999999998 1.23754282830661e-09
vertex 32.5511112605663 5.61177142117033 -1.16132977286634e-14
vertex 32.7009618943232 5.24999998882411 -1.16758687339783e-14
endloop
endfacet
facet normal -3.08051125380632e-11 -4.95021700206037e-10 -1.0
outer loop
vertex 29.9999999999242 3.49999999999998 1.23754282830661e-09
vertex 32.7009618943232 5.24999998882411 -1.16758687339783e-14
vertex 32.9393398282202 4.93933981704429 -1.17691812792413e-14
endloop
endfacet
facet normal -3.08051125380632e-11 -4.95021700206037e-10 -1.0
outer loop
vertex 29.9999999999242 3.49999999999998 1.23754282830661e-09
vertex 32.9393398282202 4.93933981704429 -1.17691812792413e-14
vertex 33.25 4.70096188314745 -1.18868762686337e-14
endloop
endfacet
facet normal -3.08051125380632e-11 -4.95021700206037e-10 -1.0
outer loop
vertex 29.9999999999242 3.49999999999998 1.23754282830661e-09
vertex 33.25 4.70096188314745 -1.18868762686337e-14
vertex 33.6117714323462 4.55111124939051 -1.20209329858839e-14
endloop
endfacet
facet normal -3.08051125380632e-11 -4.95021700206037e-10 -1.0
outer loop
vertex 29.9999999999242 3.49999999999998 1.23754282830661e-09
vertex 33.6117714323462 4.55111124939051 -1.20209329858839e-14
vertex 34.0 4.49999998882411 -1.21622156793366e-14
endloop
endfacet
facet normal -3.08051125380632e-11 -4.95021700206037e-10 -1.0
outer loop
vertex 29.9999999999242 3.49999999999998 1.23754282830661e-09
vertex 34.0 4.49999998882411 -1.21622156793366e-14
vertex 37.7957375871733 4.13055227591683 7.52143429555771e-10
endloop
endfacet
facet normal -3.08051125380632e-11 -4.95021700206037e-10 -1.0
outer loop
vertex 29.9999999999242 3.49999999999998 1.23754282830661e-09
vertex 37.7957375871733 4.13055227591683 7.52143429555771e-10
vertex 37.4263427298349 3.77934290573459 1.00642980220245e-09
endloop
endfacet
facet normal -3.08051125380632e-11 -4.95021700206037e-10 -1.0
outer loop
vertex 29.9999999999242 3.49999999999998 1.23754282830661e-09
vertex 37.4263427298349 3.77934290573459 1.00642980220245e-09
vertex 36.9999999999242 3.49999999999998 1.23754030254923e-09
endloop
endfacet
facet normal 5.87493017197479e-16 1.0 5.03565443312122e-17
outer loop
vertex 1.21014309688607e-14 12.0 14.0
vertex 30.0 12.0 -1.05426778445867e-14
vertex 7.04991620681628e-15 12.0 2.81996648189132e-16
endloop
endfacet
facet normal 5.87493017197479e-16 1.0 5.03565443312122e-17
outer loop
vertex 30.0 12.0 -1.05426778445867e-14
vertex 1.21014309688607e-14 12.0 14.0
vertex 30.0 12.0 14.0
endloop
endfacet
facet normal 5.37136472861149e-16 1.0 -1.5106963297886e-16
outer loop
vertex 37.0 8.49999999999998 14.0
vertex 30.0 8.49999999999998 6.99999999999998
vertex 30.0 8.49999999999998 14.0
endloop
endfacet
facet normal 5.37136472861149e-16 1.0 -1.5106963297886e-16
outer loop
vertex 30.0 8.49999999999998 6.99999999999998
vertex 37.0 8.49999999999998 14.0
vertex 30.0000000000758 8.49999999999998 -1.23756560564218e-09
endloop
endfacet
facet normal 5.37136472861149e-16 1.0 -1.5106963297886e-16
outer loop
vertex 30.0000000000758 8.49999999999998 -1.23756560564218e-09
vertex 37.0 8.49999999999998 14.0
vertex 37.0000000000758 8.49999999999998 -1.23756813139956e-09
endloop
endfacet
facet normal 1.0 7.2156228079301e-12 2.70555641390714e-12
outer loop
vertex 30.0 12.0 -1.05426778445867e-14
vertex 30.0 8.49999999999998 6.99999999999998
vertex 30.0000000000758 8.49999999999998 -1.23756560564218e-09
endloop
endfacet
facet normal 1.0 7.2156228079301e-12 2.70555641390714e-12
outer loop
vertex 30.0 8.49999999999998 6.99999999999998
vertex 30.0 12.0 -1.05426778445867e-14
vertex 30.0 12.0 14.0
endloop
endfacet
facet normal 1.0 7.2156228079301e-12 2.70555641390714e-12
outer loop
vertex 30.0 8.49999999999998 6.99999999999998
vertex 30.0 12.0 14.0
vertex 30.0 8.49999999999998 14.0
endloop
endfacet
facet normal 3.75995531006386e-16 -1.25519274242197e-31 1.0
outer loop
vertex 5.4400928211098e-15 0.0 14.0
vertex 30.0 12.0 14.0
vertex 1.21014309688607e-14 12.0 14.0
endloop
endfacet
facet normal 3.75995531006386e-16 -1.25519274242197e-31 1.0
outer loop
vertex 30.0 12.0 14.0
vertex 5.4400928211098e-15 0.0 14.0
vertex 30.0 8.49999999999998 14.0
endloop
endfacet
facet normal 3.75995531006386e-16 -1.25519274242197e-31 1.0
outer loop
vertex 30.0 8.49999999999998 14.0
vertex 5.4400928211098e-15 0.0 14.0
vertex 30.0 3.49999999999998 14.0
endloop
endfacet
facet normal 3.75995531006386e-16 -1.25519274242197e-31 1.0
outer loop
vertex 30.0 3.49999999999998 14.0
vertex 5.4400928211098e-15 0.0 14.0
vertex 30.0 -1.69197988952874e-14 14.0
endloop
endfacet
facet normal -5.6399329650958e-16 -1.0 2.52805268220046e-31
outer loop
vertex 30.0 -1.69197988952874e-14 -1.08246744901496e-14
vertex 5.4400928211098e-15 0.0 14.0
vertex 3.88578059065341e-16 0.0 0.0
endloop
endfacet
facet normal -5.6399329650958e-16 -1.0 2.52805268220046e-31
outer loop
vertex 5.4400928211098e-15 0.0 14.0
vertex 30.0 -1.69197988952874e-14 -1.08246744901496e-14
vertex 30.0 -1.69197988952874e-14 14.0
endloop
endfacet
facet normal 2.59492610358518e-16 0.258819045102522 0.965925826289068
outer loop
vertex 5.01450154751136e-15 5.3529523872437 4.58518543427733
vertex 30.0 5.99999999999998 4.5
vertex 5.3429483064551e-15 6.0 4.5
endloop
endfacet
facet normal 1.17427297774914e-16 5.6700268372923e-17 1.0
outer loop
vertex 30.0 5.99999999999998 4.5
vertex 5.01450154751136e-15 5.3529523872437 4.58518543427733
vertex 30.0 5.35295238724368 4.58518543427732
endloop
endfacet
facet normal 3.94568954645478e-16 0.96592582628907 -0.258819045102514
outer loop
vertex 30.0000000000001 3.58518543427731 7.64704761275628
vertex 4.8572257331816e-15 3.5 7.0
vertex 5.13798247468629e-15 3.58518543427733 7.6470476127563
endloop
endfacet
facet normal 5.64103156403413e-16 1.0 -5.64633532424797e-16
outer loop
vertex 4.8572257331816e-15 3.5 7.0
vertex 30.0000000000001 3.58518543427731 7.64704761275628
vertex 30.0000000000001 3.49999999999998 6.99999999999999
endloop
endfacet
facet normal -8.72846768408653e-16 -1.0 1.75652269596236e-27
outer loop
vertex 36.9999999999242 3.49999999999998 1.23754030254923e-09
vertex 30.0000000000001 3.49999999999998 6.99999999999999
vertex 29.9999999999242 3.49999999999998 1.23754282830661e-09
endloop
endfacet
facet normal -8.72846768408653e-16 -1.0 1.75652269596236e-27
outer loop
vertex 30.0000000000001 3.49999999999998 6.99999999999999
vertex 37.0 3.49999999999998 14.0
vertex 30.0 3.49999999999998 14.0
endloop
endfacet
facet normal -8.72846768408653e-16 -1.0 1.75652269596236e-27
outer loop
vertex 37.0 3.49999999999998 14.0
vertex 30.0000000000001 3.49999999999998 6.99999999999999
vertex 36.9999999999242 3.49999999999998 1.23754030254923e-09
endloop
endfacet
facet normal -1.0 1.00996159583626e-11 4.02851716670381e-16
outer loop
vertex 29.9999999999242 3.49999999999998 1.23754282830661e-09
vertex 30.0 8.49999999999998 6.99999999999998
vertex 30.0000000000758 8.49999999999998 -1.23756560564218e-09
endloop
endfacet
facet normal -1.0 1.00996159583626e-11 4.02851716670381e-16
outer loop
vertex 30.0 8.49999999999998 6.99999999999998
vertex 29.9999999999242 3.49999999999998 1.23754282830661e-09
vertex 30.0000000000001 3.49999999999998 6.99999999999999
endloop
endfacet
facet normal -1.0 1.00996159583626e-11 4.02851716670381e-16
outer loop
vertex 30.0 8.49999999999998 6.99999999999998
vertex 30.0000000000001 3.49999999999998 6.99999999999999
vertex 30.0 8.49999999999998 14.0
endloop
endfacet
facet normal -1.0 1.00996159583626e-11 4.02851716670381e-16
outer loop
vertex 30.0 8.49999999999998 14.0
vertex 30.0000000000001 3.49999999999998 6.99999999999999
vertex 30.0 3.49999999999998 14.0
endloop
endfacet
facet normal -3.72572487211947e-16 -3.95384517630173e-11 -1.0
outer loop
vertex 30.0000000000758 8.49999999999998 -1.23756560564218e-09
vertex 7.04991620681628e-15 12.0 2.81996648189132e-16
vertex 30.0 12.0 -1.05426778445867e-14
endloop
endfacet
facet normal -3.72572487211947e-16 -3.95384517630173e-11 -1.0
outer loop
vertex 7.04991620681628e-15 12.0 2.81996648189132e-16
vertex 30.0000000000758 8.49999999999998 -1.23756560564218e-09
vertex 3.88578059065341e-16 0.0 0.0
endloop
endfacet
facet normal -3.72572487211947e-16 -3.95384517630173e-11 -1.0
outer loop
vertex 3.88578059065341e-16 0.0 0.0
vertex 30.0000000000758 8.49999999999998 -1.23756560564218e-09
vertex 29.9999999999242 3.49999999999998 1.23754282830661e-09
endloop
endfacet
facet normal -3.72572487211947e-16 -3.95384517630173e-11 -1.0
outer loop
vertex 3.88578059065341e-16 0.0 0.0
vertex 29.9999999999242 3.49999999999998 1.23754282830661e-09
vertex 30.0 -1.69197988952874e-14 -1.08246744901496e-14
endloop
endfacet
facet normal 5.94652116398128e-16 0.866025403784438 0.500000000000002
outer loop
vertex 4.59212473121936e-15 3.8349364905389 5.75
vertex 30.0000000000001 4.23223304703361 5.23223304703363
vertex 4.6258466659454e-15 4.23223304703363 5.23223304703363
endloop
endfacet
facet normal 4.81611081800343e-16 0.707106781186548 0.707106781186548
outer loop
vertex 30.0000000000001 4.23223304703361 5.23223304703363
vertex 4.59212473121936e-15 3.8349364905389 5.75
vertex 30.0000000000001 3.83493649053889 5.75
endloop
endfacet
facet normal -2.47443367611837e-16 0.500000000000002 -0.866025403784437
outer loop
vertex 30.0 4.74999999999998 9.16506350946108
vertex 6.75714032270394e-15 5.3529523872437 9.41481456572267
vertex 29.9999999999999 5.35295238724368 9.41481456572265
endloop
endfacet
facet normal -4.44456675256236e-16 0.258819045102521 -0.965925826289068
outer loop
vertex 6.75714032270394e-15 5.3529523872437 9.41481456572267
vertex 30.0 4.74999999999998 9.16506350946108
vertex 6.33231871491564e-15 4.75 9.1650635094611
endloop
endfacet
facet normal 4.81611081800343e-16 0.707106781186547 0.707106781186548
outer loop
vertex 4.6258466659454e-15 4.23223304703363 5.23223304703363
vertex 30.0000000000001 4.74999999999998 4.8349364905389
vertex 4.769911532229e-15 4.75 4.8349364905389
endloop
endfacet
facet normal 3.83842156754587e-16 0.500000000000004 0.866025403784437
outer loop
vertex 30.0000000000001 4.74999999999998 4.8349364905389
vertex 4.6258466659454e-15 4.23223304703363 5.23223304703363
vertex 30.0000000000001 4.23223304703361 5.23223304703363
endloop
endfacet
facet normal 6.47736079897939e-16 0.965925826289068 0.258819045102523
outer loop
vertex 30.0000000000001 3.58518543427731 6.35295238724368
vertex 4.59212473121936e-15 3.8349364905389 5.75
vertex 4.67104382217428e-15 3.58518543427733 6.3529523872437
endloop
endfacet
facet normal 5.94652116398128e-16 0.866025403784438 0.500000000000002
outer loop
vertex 4.59212473121936e-15 3.8349364905389 5.75
vertex 30.0000000000001 3.58518543427731 6.35295238724368
vertex 30.0000000000001 3.83493649053889 5.75
endloop
endfacet
facet normal -4.44456675256234e-16 0.258819045102524 -0.965925826289068
outer loop
vertex 29.9999999999999 5.35295238724368 9.41481456572265
vertex 7.14706072147099e-15 6.0 9.5
vertex 29.9999999999999 5.99999999999998 9.49999999999998
endloop
endfacet
facet normal -6.11046296365069e-16 1.48255259226956e-16 -1.0
outer loop
vertex 7.14706072147099e-15 6.0 9.5
vertex 29.9999999999999 5.35295238724368 9.41481456572265
vertex 6.75714032270394e-15 5.3529523872437 9.41481456572267
endloop
endfacet
facet normal -7.36148316890237e-16 -0.258819045102521 -0.965925826289068
outer loop
vertex 29.9999999999999 6.64704761275628 9.41481456572265
vertex 7.72009749569709e-15 7.25 9.16506350946109
vertex 29.9999999999999 7.24999999999998 9.16506350946108
endloop
endfacet
facet normal -8.10810050419258e-16 -0.500000000000001 -0.866025403784438
outer loop
vertex 7.72009749569709e-15 7.25 9.16506350946109
vertex 29.9999999999999 6.64704761275628 9.41481456572265
vertex 7.47550748041473e-15 6.6470476127563 9.41481456572267
endloop
endfacet
facet normal -6.11046296365069e-16 5.13610764948481e-16 -1.0
outer loop
vertex 29.9999999999999 5.99999999999998 9.49999999999998
vertex 7.47550748041473e-15 6.6470476127563 9.41481456572267
vertex 29.9999999999999 6.64704761275628 9.41481456572265
endloop
endfacet
facet normal -7.36148316890237e-16 -0.258819045102522 -0.965925826289068
outer loop
vertex 7.47550748041473e-15 6.6470476127563 9.41481456572267
vertex 29.9999999999999 5.99999999999998 9.49999999999998
vertex 7.14706072147099e-15 6.0 9.5
endloop
endfacet
facet normal -7.02790977609967e-16 -0.96592582628907 -0.258819045102514
outer loop
vertex 30.0 8.41481456572265 7.64704761275628
vertex 7.89788429670674e-15 8.1650635094611 8.25
vertex 7.8189652057518e-15 8.41481456572267 7.6470476127563
endloop
endfacet
facet normal -7.93430031836882e-16 -0.866025403784439 -0.499999999999999
outer loop
vertex 7.89788429670674e-15 8.1650635094611 8.25
vertex 30.0 8.41481456572265 7.64704761275628
vertex 29.9999999999999 8.16506350946108 8.24999999999998
endloop
endfacet
facet normal 5.64103156403413e-16 1.0 -5.64633532424797e-16
outer loop
vertex 4.8572257331816e-15 3.5 7.0
vertex 30.0000000000001 3.58518543427731 6.35295238724368
vertex 4.67104382217428e-15 3.58518543427733 6.3529523872437
endloop
endfacet
facet normal 6.47736079897939e-16 0.965925826289068 0.258819045102523
outer loop
vertex 30.0000000000001 3.58518543427731 6.35295238724368
vertex 4.8572257331816e-15 3.5 7.0
vertex 30.0000000000001 3.49999999999998 6.99999999999999
endloop
endfacet
facet normal -5.63931170423392e-16 -1.0 -4.69055215470245e-16
outer loop
vertex 7.63278329474449e-15 8.5 7.0
vertex 30.0 8.41481456572265 7.64704761275628
vertex 7.8189652057518e-15 8.41481456572267 7.6470476127563
endloop
endfacet
facet normal -7.02790977609967e-16 -0.96592582628907 -0.258819045102514
outer loop
vertex 30.0 8.41481456572265 7.64704761275628
vertex 7.63278329474449e-15 8.5 7.0
vertex 30.0 8.49999999999998 6.99999999999998
endloop
endfacet
facet normal -1.95984311825415e-16 -0.707106781186546 0.707106781186549
outer loop
vertex 30.0 7.76776695296635 5.23223304703362
vertex 6.9958280891988e-15 8.16506350946109 5.75
vertex 6.58846223930012e-15 7.76776695296637 5.23223304703363
endloop
endfacet
facet normal -2.86886854271892e-16 -0.866025403784437 0.500000000000002
outer loop
vertex 6.9958280891988e-15 8.16506350946109 5.75
vertex 30.0 7.76776695296635 5.23223304703362
vertex 30.0 8.16506350946108 5.74999999999999
endloop
endfacet
facet normal 3.83842156754585e-16 0.500000000000001 0.866025403784438
outer loop
vertex 4.769911532229e-15 4.75 4.8349364905389
vertex 30.0 5.35295238724368 4.58518543427732
vertex 5.01450154751136e-15 5.3529523872437 4.58518543427733
endloop
endfacet
facet normal 2.5949261035852e-16 0.258819045102525 0.965925826289067
outer loop
vertex 30.0 5.35295238724368 4.58518543427732
vertex 4.769911532229e-15 4.75 4.8349364905389
vertex 30.0000000000001 4.74999999999998 4.8349364905389
endloop
endfacet
facet normal -1.32988089569774e-16 -0.499999999999998 0.86602540378444
outer loop
vertex 6.15769031301044e-15 7.25 4.8349364905389
vertex 30.0 7.76776695296635 5.23223304703362
vertex 6.58846223930012e-15 7.76776695296637 5.23223304703363
endloop
endfacet
facet normal -1.95984311825415e-16 -0.707106781186546 0.707106781186549
outer loop
vertex 30.0 7.76776695296635 5.23223304703362
vertex 6.15769031301044e-15 7.25 4.8349364905389
vertex 30.0 7.24999999999998 4.8349364905389
endloop
endfacet
facet normal -3.36045250266178e-17 0.707106781186547 -0.707106781186548
outer loop
vertex 30.0 4.23223304703361 8.76776695296635
vertex 6.33231871491564e-15 4.75 9.1650635094611
vertex 30.0 4.74999999999998 9.16506350946108
endloop
endfacet
facet normal -2.4744336761184e-16 0.499999999999999 -0.866025403784439
outer loop
vertex 6.33231871491564e-15 4.75 9.1650635094611
vertex 30.0 4.23223304703361 8.76776695296635
vertex 5.90154678862597e-15 4.23223304703363 8.76776695296637
endloop
endfacet
facet normal -2.86886854271892e-16 -0.866025403784437 0.500000000000002
outer loop
vertex 30.0 8.16506350946108 5.74999999999999
vertex 7.35202655323979e-15 8.41481456572267 6.35295238724369
vertex 6.9958280891988e-15 8.16506350946109 5.75
endloop
endfacet
facet normal -4.11664003356562e-16 -0.965925826289068 0.258819045102523
outer loop
vertex 7.35202655323979e-15 8.41481456572267 6.35295238724369
vertex 30.0 8.16506350946108 5.74999999999999
vertex 30.0 8.41481456572265 6.35295238724368
endloop
endfacet
facet normal -4.11664003356562e-16 -0.965925826289068 0.258819045102523
outer loop
vertex 30.0 8.41481456572265 6.35295238724368
vertex 7.63278329474449e-15 8.5 7.0
vertex 7.35202655323979e-15 8.41481456572267 6.35295238724369
endloop
endfacet
facet normal -5.63931170423392e-16 -1.0 -4.69055215470245e-16
outer loop
vertex 7.63278329474449e-15 8.5 7.0
vertex 30.0 8.41481456572265 6.35295238724368
vertex 30.0 8.49999999999998 6.99999999999998
endloop
endfacet
facet normal -3.23374223405156e-17 -0.25881904510252 0.965925826289068
outer loop
vertex 5.73286870522214e-15 6.6470476127563 4.58518543427733
vertex 30.0 7.24999999999998 4.8349364905389
vertex 6.15769031301044e-15 7.25 4.8349364905389
endloop
endfacet
facet normal -1.32988089569774e-16 -0.499999999999998 0.86602540378444
outer loop
vertex 30.0 7.24999999999998 4.8349364905389
vertex 5.73286870522214e-15 6.6470476127563 4.58518543427733
vertex 30.0 6.64704761275628 4.58518543427732
endloop
endfacet
facet normal 1.17427297774914e-16 -3.086552373486e-16 1.0
outer loop
vertex 5.3429483064551e-15 6.0 4.5
vertex 30.0 6.64704761275628 4.58518543427732
vertex 5.73286870522214e-15 6.6470476127563 4.58518543427733
endloop
endfacet
facet normal -3.23374223405152e-17 -0.25881904510252 0.965925826289069
outer loop
vertex 30.0 6.64704761275628 4.58518543427732
vertex 5.3429483064551e-15 6.0 4.5
vertex 30.0 5.99999999999998 4.5
endloop
endfacet
facet normal -8.10810050419258e-16 -0.500000000000001 -0.866025403784438
outer loop
vertex 29.9999999999999 7.24999999999998 9.16506350946108
vertex 7.86416236198068e-15 7.76776695296637 8.76776695296637
vertex 29.9999999999999 7.76776695296635 8.76776695296635
endloop
endfacet
facet normal -8.30180904370042e-16 -0.707106781186548 -0.707106781186547
outer loop
vertex 7.86416236198068e-15 7.76776695296637 8.76776695296637
vertex 29.9999999999999 7.24999999999998 9.16506350946108
vertex 7.72009749569709e-15 7.25 9.16506350946109
endloop
endfacet
facet normal -7.9343003183688e-16 -0.866025403784443 -0.499999999999993
outer loop
vertex 29.9999999999999 8.16506350946108 8.24999999999998
vertex 7.86416236198068e-15 7.76776695296637 8.76776695296637
vertex 7.89788429670674e-15 8.1650635094611 8.25
endloop
endfacet
facet normal -8.30180904370042e-16 -0.707106781186548 -0.707106781186547
outer loop
vertex 7.86416236198068e-15 7.76776695296637 8.76776695296637
vertex 29.9999999999999 8.16506350946108 8.24999999999998
vertex 29.9999999999999 7.76776695296635 8.76776695296635
endloop
endfacet
facet normal -3.36045250266178e-17 0.707106781186547 -0.707106781186548
outer loop
vertex 30.0 4.23223304703361 8.76776695296635
vertex 5.49418093872728e-15 3.8349364905389 8.25
vertex 5.90154678862597e-15 4.23223304703363 8.76776695296637
endloop
endfacet
facet normal 1.82752723193743e-16 0.866025403784439 -0.5
outer loop
vertex 5.49418093872728e-15 3.8349364905389 8.25
vertex 30.0 4.23223304703361 8.76776695296635
vertex 30.0 3.83493649053889 8.24999999999998
endloop
endfacet
facet normal 1.82752723193743e-16 0.866025403784439 -0.5
outer loop
vertex 5.49418093872728e-15 3.8349364905389 8.25
vertex 30.0000000000001 3.58518543427731 7.64704761275628
vertex 5.13798247468629e-15 3.58518543427733 7.6470476127563
endloop
endfacet
facet normal 3.94568954645478e-16 0.96592582628907 -0.258819045102514
outer loop
vertex 30.0000000000001 3.58518543427731 7.64704761275628
vertex 5.49418093872728e-15 3.8349364905389 8.25
vertex 30.0 3.83493649053889 8.24999999999998
endloop
endfacet
facet normal 1.0 -8.9920981839315e-13 -1.95039877876097e-12
outer loop
vertex 29.9999999999242 3.49999999999998 1.23754282830661e-09
vertex 30.0 -1.69197988952874e-14 14.0
vertex 30.0 -1.69197988952874e-14 -1.08246744901496e-14
endloop
endfacet
facet normal 1.0 -8.9920981839315e-13 -1.95039877876097e-12
outer loop
vertex 30.0 -1.69197988952874e-14 14.0
vertex 29.9999999999242 3.49999999999998 1.23754282830661e-09
vertex 30.0000000000001 3.49999999999998 6.99999999999999
endloop
endfacet
facet normal 1.0 -8.9920981839315e-13 -1.95039877876097e-12
outer loop
vertex 30.0 -1.69197988952874e-14 14.0
vertex 30.0000000000001 3.49999999999998 6.99999999999999
vertex 30.0 3.49999999999998 14.0
endloop
endfacet
endsolid Tubo
